<?xml version="1.0" encoding="UTF-8"?>
<svg width="223px" height="288px" viewBox="0 0 223 288" version="1.1" xmlns="http://www.w3.org/2000/svg" xmlns:xlink="http://www.w3.org/1999/xlink">
    <!-- Generator: sketchtool 53.2 (72643) - https://sketchapp.com -->
    <title>B4858E4C-5085-4F1B-A028-B27822AFCF78</title>
    <desc>Created with sketchtool.</desc>
    <defs>
        <linearGradient x1="78.1906301%" y1="5.2524468%" x2="28.7304176%" y2="83.1080157%" id="linearGradient-1">
            <stop stop-color="#171717" stop-opacity="0.15" offset="0%"></stop>
            <stop stop-color="#424242" stop-opacity="0" offset="100%"></stop>
        </linearGradient>
        <linearGradient x1="67.8806639%" y1="66.0217964%" x2="50.7908618%" y2="50.7086515%" id="linearGradient-2">
            <stop stop-color="#00C8FF" stop-opacity="0.3" offset="0%"></stop>
            <stop stop-color="#00C8FF" stop-opacity="0" offset="100%"></stop>
        </linearGradient>
        <linearGradient x1="24.0992646%" y1="97.4435758%" x2="74.577409%" y2="5.24847698%" id="linearGradient-3">
            <stop stop-color="#171717" offset="0.002%"></stop>
            <stop stop-color="#424242" offset="79.489%"></stop>
        </linearGradient>
        <linearGradient x1="29.2360016%" y1="69.5648888%" x2="100.907616%" y2="1.54794447%" id="linearGradient-4">
            <stop stop-color="#F2F2F2" offset="0%"></stop>
            <stop stop-color="#D9D9D9" offset="100%"></stop>
        </linearGradient>
        <linearGradient x1="49.2501372%" y1="-10.749322%" x2="50.5560876%" y2="94.4456644%" id="linearGradient-5">
            <stop stop-color="#F2F2F2" offset="0%"></stop>
            <stop stop-color="#CCCCCC" offset="100%"></stop>
        </linearGradient>
        <linearGradient x1="36.0129005%" y1="42.294215%" x2="52.7570775%" y2="51.5008219%" id="linearGradient-6">
            <stop stop-color="#00C8FF" stop-opacity="0.3" offset="0%"></stop>
            <stop stop-color="#00C8FF" stop-opacity="0" offset="100%"></stop>
        </linearGradient>
        <linearGradient x1="160.083047%" y1="50.0000092%" x2="-25.508739%" y2="50.0000092%" id="linearGradient-7">
            <stop stop-color="#00C8FF" stop-opacity="0.15" offset="0%"></stop>
            <stop stop-color="#00C8FF" stop-opacity="0" offset="99.489%"></stop>
        </linearGradient>
        <linearGradient x1="78.1906301%" y1="5.2524468%" x2="28.7304176%" y2="83.1080157%" id="linearGradient-8">
            <stop stop-color="#171717" stop-opacity="0.15" offset="0%"></stop>
            <stop stop-color="#424242" stop-opacity="0" offset="100%"></stop>
        </linearGradient>
        <linearGradient x1="67.8806639%" y1="66.0217964%" x2="50.7908618%" y2="50.7086515%" id="linearGradient-9">
            <stop stop-color="#00C8FF" stop-opacity="0.3" offset="0%"></stop>
            <stop stop-color="#00C8FF" stop-opacity="0" offset="100%"></stop>
        </linearGradient>
        <linearGradient x1="30.8812434%" y1="42.6223649%" x2="55.3285102%" y2="52.7269728%" id="linearGradient-10">
            <stop stop-color="#00C8FF" stop-opacity="0.4" offset="0%"></stop>
            <stop stop-color="#00C8FF" stop-opacity="0" offset="100%"></stop>
        </linearGradient>
        <linearGradient x1="36.1097674%" y1="40.9508367%" x2="56.4312252%" y2="54.1897568%" id="linearGradient-11">
            <stop stop-color="#00C8FF" stop-opacity="0.15" offset="0%"></stop>
            <stop stop-color="#00C8FF" stop-opacity="0" offset="100%"></stop>
        </linearGradient>
        <linearGradient x1="24.0992646%" y1="97.4435758%" x2="74.577409%" y2="5.24847698%" id="linearGradient-12">
            <stop stop-color="#171717" offset="0.002%"></stop>
            <stop stop-color="#424242" offset="79.489%"></stop>
        </linearGradient>
        <linearGradient x1="29.2360016%" y1="69.5648888%" x2="100.907616%" y2="1.54794447%" id="linearGradient-13">
            <stop stop-color="#F2F2F2" offset="0%"></stop>
            <stop stop-color="#D9D9D9" offset="100%"></stop>
        </linearGradient>
        <linearGradient x1="49.2501372%" y1="-10.749322%" x2="50.5560876%" y2="94.4456644%" id="linearGradient-14">
            <stop stop-color="#F2F2F2" offset="0%"></stop>
            <stop stop-color="#CCCCCC" offset="100%"></stop>
        </linearGradient>
        <linearGradient x1="36.0129005%" y1="42.294215%" x2="52.7570775%" y2="51.5008219%" id="linearGradient-15">
            <stop stop-color="#00C8FF" stop-opacity="0.3" offset="0%"></stop>
            <stop stop-color="#00C8FF" stop-opacity="0" offset="100%"></stop>
        </linearGradient>
        <linearGradient x1="160.083047%" y1="50.0000092%" x2="-25.508739%" y2="50.0000092%" id="linearGradient-16">
            <stop stop-color="#00C8FF" stop-opacity="0.15" offset="0%"></stop>
            <stop stop-color="#00C8FF" stop-opacity="0" offset="99.489%"></stop>
        </linearGradient>
    </defs>
    <g id="Design" stroke="none" stroke-width="1" fill="none" fill-rule="evenodd">
        <g id="Desktop/LanadingPage-v6" transform="translate(-248.000000, -1814.000000)" fill-rule="nonzero">
            <g id="How-it-works" transform="translate(0.000000, 1543.000000)">
                <g id="Content" transform="translate(196.000000, 96.000000)">
                    <g id="Steps-and-illustration" transform="translate(0.000000, 136.000000)">
                        <g id="Step-01" transform="translate(0.000000, 39.000000)">
                            <g id="Group-3" transform="translate(52.000000, 0.000000)">
                                <g id="Console-Small-Copy-2" transform="translate(0.000000, 34.000000)">
                                    <path d="M0.268462271,90.0038747 L0.268462271,37.7049895 C0.268462427,37.3197198 0.474001406,36.963716 0.807654719,36.7710812 L62.6318436,1.07687544 C63.0032317,0.862455725 63.4607999,0.862456616 63.8321871,1.07687777 C64.2035744,1.29129893 64.4323582,1.68756477 64.4323582,2.11640613 L64.4323582,52.9588301 L0.268462271,90.0038747 Z" id="Path" fill="url(#linearGradient-1)"></path>
                                    <path d="M2.51425274,91.290954 L2.51425274,38.3694633 L66.678154,1.3244133 L66.678154,53.0006822 C66.6781537,53.7712215 66.2670758,54.4832291 65.5997692,54.8684988 L2.51425274,91.290954 Z" id="Path" fill="#EFEFEF"></path>
                                    <path d="M2.51425274,91.290954 L2.51425274,38.3694633 L66.678154,1.3244133 L66.678154,53.0006822 C66.6781537,53.7712215 66.2670758,54.4832291 65.5997692,54.8684988 L2.51425274,91.290954 Z" id="Path" fill="url(#linearGradient-2)"></path>
                                    <polygon id="Path" fill="#FFFFFF" points="3.89188944 38.9600462 66.678154 2.71067708 66.678154 1.3244133 2.51425274 38.3696304 2.51425274 91.29083 3.89188944 90.4955212"></polygon>
                                    <polygon id="Path" fill="url(#linearGradient-3)" points="7.10170208 83.3549956 7.28179236 41.1216687 61.6555764 9.00898407 61.5822462 51.3037789"></polygon>
                                    <polygon id="Path" fill="#00C8FF" opacity="0.25" points="7.28125317 41.8921747 61.6539588 9.78002927 61.6555764 9.00898407 7.28125317 41.1216687"></polygon>
                                    <polygon id="Path" fill="#00C8FF" opacity="0.25" points="7.28125317 83.3059291 61.6539588 51.1937836 61.6555764 50.4221992 7.28125317 82.535423"></polygon>
                                    <path d="M2.51425274,38.3694633 L1.08172624,37.5484727 C0.914327164,37.4525345 0.810948966,37.274462 0.810641798,37.0815203 C0.81033463,36.8885786 0.913145312,36.7101778 1.08023807,36.6137071 L63.8951554,0.347504421 C64.2277361,0.155491013 64.6373364,0.154833819 64.9705316,0.345779005 L66.678154,1.3244133 L2.51425274,38.3694633 Z" id="Path" fill="url(#linearGradient-4)"></path>
                                    <path d="M2.51425274,91.290954 L0.268462271,90.0039017 L0.268462271,37.9720623 C0.268461488,37.7881668 0.366414727,37.6181937 0.525526341,37.5259926 C0.684637955,37.4337914 0.880815092,37.4333234 1.04036479,37.5247644 L2.51425274,38.3694633 L2.51425274,91.290954 Z" id="Path" fill="url(#linearGradient-5)"></path>
                                    <polygon id="Path" fill="url(#linearGradient-6)" points="7.23398217 83.4133254 7.30716676 41.1183958 30.6623631 54.6025205 30.6623631 96.9397013"></polygon>
                                    <path d="M43.9279262,38.8563217 C43.9279262,48.2549044 40.5283825,58.8964173 34.2192971,67.4363792 L61.4179489,51.3412042 L61.5544293,9.13192534 L38.1492929,22.9367186 C41.1782011,25.7621463 43.9279262,32.6682796 43.9279262,38.8563217 Z" id="Path" fill="url(#linearGradient-7)"></path>
                                    <g id="Group" transform="translate(15.185275, 32.669827)" fill="#00C8FF">
                                        <polygon id="Path" points="3.20882592 20.4127477 0.8796116 28.1457379 0.321461146 28.4679917 2.63882941 20.7418492"></polygon>
                                        <polygon id="Path" points="7.3649267 19.7398086 5.86424628 25.1496342 5.32478963 25.4613576 3.83122655 21.7796868 4.4770443 21.4068838 5.59834352 24.3745505 6.71911434 20.1126116"></polygon>
                                        <path d="M11.1224241,22.1140455 L10.5337338,22.453672 C10.4771927,22.2281291 10.4528173,21.9957261 10.461331,21.7633601 C10.1918309,22.4452547 9.70947494,23.021976 9.08596968,23.4077892 C8.8600637,23.5708098 8.56553513,23.6043328 8.3087723,23.4962491 C8.08446824,23.3861999 7.9728554,23.1413526 7.9728554,22.7643385 C7.97311987,22.5387033 8.01295119,22.3148624 8.09053955,22.1029866 C8.17430512,21.8763452 8.29067016,21.6631289 8.4359624,21.4700663 C8.5996161,21.2514094 8.78561827,21.0504085 8.99095319,20.8703226 C9.23516812,20.6558552 9.49426957,20.4589579 9.76631193,20.2811093 L10.4310877,19.8361676 L10.4310877,19.6181721 C10.4310877,18.8388593 10.1144523,18.6319226 9.48118157,18.9973621 C9.27773773,19.1249918 9.08742589,19.2724446 8.9130291,19.4375642 C8.70197706,19.6248425 8.50446314,19.826843 8.32197173,20.0420475 L8.16663578,19.6434441 C8.59109715,19.1160004 9.09931112,18.6618574 9.67098271,18.299151 C10.5729726,17.778913 11.0239675,18.0665884 11.0239675,19.1621771 L11.0239675,21.1156713 C11.0177865,21.4511617 11.0508295,21.7862251 11.1224241,22.1140455 Z M10.4310553,21.1657192 L10.4310607,20.3416606 C9.8966006,20.7055112 9.52985448,20.9689642 9.33081698,21.1320196 C9.1319896,21.2946221 8.9578921,21.4853029 8.81400101,21.6980639 C8.67601868,21.8903661 8.59988671,22.1201369 8.5957413,22.3567845 C8.5957413,22.5600601 8.65761364,22.6885119 8.78161712,22.7411694 C8.94476716,22.7891346 9.12099047,22.757111 9.25683438,22.6548123 C9.50024374,22.5032898 9.7129845,22.3073402 9.88396372,22.0771809 C10.1019704,21.7962278 10.2856371,21.4902397 10.4310607,21.1657192 L10.4310553,21.1657192 Z" id="Shape"></path>
                                        <path d="M14.6648268,15.6474188 L14.425242,16.4393577 C14.1880839,16.452581 13.9569717,16.5191789 13.7491432,16.6341841 C13.550243,16.7568574 13.3761774,16.9158295 13.2360153,17.1028178 C13.0541998,17.3378201 12.8993781,17.5925162 12.7744666,17.8621086 C12.692204,18.017054 12.6216253,18.1779253 12.5633188,18.343381 L12.5633188,21.2820877 L11.9741055,21.6222426 L11.9741055,17.0785973 L12.5633188,16.7384423 L12.5633188,17.6588438 C12.7593232,16.953403 13.1946723,16.3381401 13.7946996,15.9185786 C14.0576602,15.7571968 14.3567397,15.6639939 14.6648268,15.6474188 L14.6648268,15.6474188 Z" id="Path"></path>
                                        <polygon id="Path" points="18.332279 11.6814049 16.0030647 19.4143951 15.4449143 19.7366489 17.7622879 12.0099726"></polygon>
                                        <polygon id="Path" points="22.394652 15.6063485 20.7762874 16.5404563 20.7762874 10.9768799 19.7423967 11.5739924 19.7423967 10.985302 21.3689246 10.0459264 21.3689246 15.6095081 22.394652 15.0176582"></polygon>
                                        <path d="M24.728347,9.60571346 C25.2733304,9.29136067 25.7065967,9.25941711 26.0281459,9.50988279 C26.4002821,9.89266383 26.5778167,10.4240987 26.5104751,10.9536946 C26.5148197,11.6539974 26.3493182,12.344914 26.0281513,12.9672441 C25.7420615,13.5539748 25.2901357,14.0438898 24.7283524,14.3763049 C24.1812518,14.6922393 23.7474589,14.7238324 23.4269737,14.4710842 C23.0547687,14.0819728 22.8781141,13.5456292 22.9462297,13.0114902 C22.9419808,12.314297 23.1078098,11.6265844 23.4293461,11.0079481 C23.7170589,10.4243571 24.1684173,9.93712841 24.728347,9.60571346 L24.728347,9.60571346 Z M24.728347,13.7833765 C25.1138759,13.5454969 25.4124537,13.1896768 25.5797858,12.7687026 C25.7844688,12.3131775 25.890606,11.8195489 25.8912449,11.3201513 C25.9298139,10.9238153 25.820166,10.5272446 25.5834739,10.2070155 C25.378117,9.98849517 25.0930747,9.98428228 24.728347,10.1943768 C24.3445015,10.4256769 24.0448932,10.7739119 23.8734843,11.1879845 C23.6681092,11.6513659 23.5645047,12.1534052 23.5696602,12.6602333 C23.5348361,13.0514848 23.6443016,13.4419647 23.8774312,13.7580992 C24.0827952,13.9834924 24.3664338,13.9919308 24.728347,13.7834143 L24.728347,13.7833765 Z" id="Shape"></path>
                                        <path d="M28.8252283,10.179673 C28.4553243,10.5998657 28.2703273,10.8884181 28.2702375,11.0453303 C28.2664274,11.0812621 28.2781388,11.1171112 28.3024268,11.1438637 C28.3267149,11.1706162 28.361269,11.185727 28.3974006,11.1853964 C28.5221627,11.183028 28.6433689,11.1434202 28.7454547,11.0716591 L30.0786728,10.2581363 C30.2877127,10.0946616 30.5599305,10.0355261 30.8179542,10.0975379 C30.9940904,10.1733627 31.0821135,10.37398 31.0820237,10.6993899 C31.059199,11.2761303 30.8483947,11.8295846 30.4817515,12.2753685 C30.1062419,12.7897032 29.6289444,13.2212952 29.079533,13.5433119 C28.7660422,13.7638286 28.3868675,13.8711556 28.0043078,13.8476591 C27.7257609,13.7976364 27.5863995,13.6056192 27.5862233,13.2716074 C27.6458917,12.778892 27.8741586,12.3219849 28.2323053,11.9783867 C27.8753024,11.9926034 27.6967129,11.8602622 27.6965367,11.5813631 C27.7819627,11.0871702 28.0244061,10.6336745 28.3879055,10.2881424 C28.1883208,10.2710917 28.0077003,10.1631012 27.8982109,9.99536088 C27.7775797,9.80187756 27.7179524,9.57657571 27.727082,9.34875052 C27.7338018,8.89775108 27.8652987,8.45742435 28.1069916,8.07659603 C28.3356499,7.68000196 28.6628485,7.34917609 29.0568977,7.11615948 C29.2784145,6.97348887 29.5344149,6.89343008 29.7977481,6.88447388 L30.9719637,6.00091539 L30.9719637,6.66437552 L30.2155683,7.10088955 C30.3427817,7.31582015 30.4023217,7.56407916 30.386433,7.81332993 C30.3764478,8.26058574 30.2467094,8.69698128 30.0107345,9.07705144 C29.7846785,9.48133376 29.4555757,9.81852924 29.0569031,10.0543378 C28.9758085,10.1017364 28.8985836,10.1435148 28.8252283,10.179673 Z M29.0795546,13.0157013 C29.466727,12.7930159 29.8057368,12.4955408 30.0768503,12.140592 C30.3171991,11.8687282 30.4619965,11.525691 30.4891438,11.1638341 C30.4891438,10.8615915 30.2941359,10.8231561 29.90412,11.0485277 C29.7751128,11.1227638 29.5522915,11.2600152 29.2356562,11.4602821 C29.035303,11.587172 28.8781266,11.6837072 28.764127,11.7498877 C28.6600869,11.8362983 28.5721192,11.9403982 28.504274,12.0573946 C28.3996989,12.2058818 28.3092589,12.3638358 28.2341385,12.529188 C28.1773713,12.6489308 28.1457424,12.7790357 28.1412033,12.9114754 C28.1329066,12.9867171 28.1558031,13.0620721 28.2045568,13.1199791 C28.2533105,13.1778861 28.3236626,13.2132867 28.3992177,13.2179308 C28.6419859,13.226593 28.8809185,13.1555663 29.079533,13.0156959 L29.0795546,13.0157013 Z M29.0569085,9.52674873 C29.2842813,9.39119928 29.4692196,9.1947694 29.590833,8.95964768 C29.7264041,8.71561262 29.7976192,8.44108194 29.7977697,8.16191784 C29.7977697,7.86810109 29.730633,7.67731324 29.5963597,7.58955428 C29.4623489,7.50109436 29.2820105,7.52269441 29.0569031,7.65221383 C28.8320351,7.7889387 28.6487819,7.98448568 28.5269254,8.21774583 C28.386806,8.46183163 28.3127579,8.73823708 28.3120896,9.01968137 C28.2842341,9.22754129 28.3654235,9.43508939 28.5269254,9.56887583 C28.6961711,9.66179796 28.9044544,9.64523939 29.0568923,9.52674334 L29.0569085,9.52674873 Z" id="Shape"></path>
                                        <path d="M34.255306,4.86462662 C33.9252766,4.9304311 33.6082885,5.04996898 33.3169871,5.21847166 C33.026152,5.37888611 32.7671923,5.59126411 32.5529514,5.8450726 C32.3868194,6.02546016 32.2877331,6.25746611 32.2722964,6.50221339 C32.2599482,6.60882218 32.3101885,6.71299202 32.4013036,6.76970137 C32.571718,6.81709145 32.7528754,6.80822836 32.9178499,6.74442942 L33.4841584,6.60489181 C33.691081,6.54370197 33.907551,6.5213855 34.1226054,6.53907259 C34.2714336,6.55263274 34.4068304,6.63077268 34.4930306,6.75285161 C34.5845031,6.90686023 34.627526,7.08482644 34.6165056,7.26361244 C34.6023767,7.73702266 34.435695,8.19320313 34.1412884,8.56420394 C33.8192293,9.00401068 33.4075274,9.37048702 32.9333733,9.63942917 C32.570795,9.87685321 32.1586899,10.0281504 31.7286178,10.0817341 L31.8426193,9.42722459 C32.2215926,9.40142222 32.5883629,9.28260204 32.9104738,9.08127871 C33.2187733,8.90914149 33.4914711,8.67986729 33.7139945,8.40570832 C33.8979362,8.20165773 34.0071055,7.94117397 34.0236096,7.66694996 C34.036348,7.53658102 33.9776428,7.40950512 33.8701177,7.33469418 C33.6312328,7.26976626 33.3780417,7.28099461 33.1458421,7.36681388 C32.8393866,7.43631938 32.6139341,7.48581545 32.4694844,7.51530208 C32.3367652,7.54533491 32.1988221,7.54352974 32.0669341,7.51003417 C31.9476447,7.48094396 31.8453546,7.40451112 31.7836478,7.298358 C31.7132158,7.16573436 31.6798371,7.01657694 31.6870245,6.86658347 C31.7024569,6.43094397 31.8599105,6.0122985 32.1353846,5.67446132 C32.4564815,5.2523495 32.8613599,4.9011619 33.3246113,4.64293764 C33.6580617,4.45289196 34.0160435,4.30956425 34.3885135,4.21697561 L34.255306,4.86462662 Z" id="Path"></path>
                                        <polygon id="Path" points="38.3982451 0.0961434054 36.0690308 7.82913366 35.5108803 8.15138741 37.8282486 0.425244908"></polygon>
                                        <path d="M39.3568376,4.81460034 C39.4535932,4.74176098 39.5823511,4.72743021 39.6927545,4.77721274 C39.7939251,4.84530785 39.8477016,4.96490491 39.8314995,5.0857764 C39.8277556,5.2561773 39.7799562,5.42270595 39.6927545,5.56915165 C39.6155264,5.71787122 39.49944,5.84288303 39.3568376,5.93089586 C39.2607581,6.00511734 39.1295963,6.01465592 39.0237892,5.95511638 C38.9258657,5.87683999 38.8750508,5.75372612 38.8892553,5.62916916 C38.9013359,5.29717369 39.0762485,4.99245665 39.3568376,4.81458956 L39.3568376,4.81460034 Z M40.9259739,3.90840116 C41.0230759,3.83422253 41.1531727,3.81964408 41.2642848,3.87049054 C41.3640689,3.93960211 41.4168174,4.05871819 41.400927,4.1790542 C41.3970887,4.34964297 41.3492022,4.51634035 41.2619178,4.66295786 C41.1849257,4.81184356 41.0687864,4.93691236 40.9260009,5.02470207 C40.8309525,5.09790702 40.7011606,5.10663274 40.597169,5.04680896 C40.498997,4.9689222 40.4479402,4.84590814 40.4621066,4.72139554 C40.4641828,4.55663341 40.5101696,4.39540702 40.5953249,4.25434165 C40.6727053,4.11159507 40.786869,3.99215162 40.9259739,3.90840116 L40.9259739,3.90840116 Z M42.4764164,3.01325543 C42.5734248,2.93934625 42.7032202,2.92477881 42.8141989,2.97534481 C42.9140725,3.04464149 42.9668975,3.16390197 42.9511053,3.28443149 C42.9473613,3.45483238 42.899562,3.62136103 42.8123603,3.76780673 C42.7351321,3.91652631 42.6190457,4.04153811 42.4764434,4.12955095 C42.3806934,4.2025018 42.2507604,4.21161203 42.1457674,4.15273622 C42.0463648,4.07614107 41.9944029,3.95303376 42.0088611,3.82837961 C42.0213577,3.49636283 42.1961456,3.19166569 42.4764434,3.0132716 L42.4764164,3.01325543 Z" id="Shape"></path>
                                    </g>
                                </g>
                                <g id="Console-Big" transform="translate(23.000000, 27.000000)">
                                    <path d="M10.5492611,200.9707 L148.124384,121.541667 C149.432861,120.786218 150.238916,119.39009 150.238916,117.879192 L150.238916,5.43666585 L10.5492611,86.0865352 L10.5492611,200.9707 Z M9.54926108,85.509185 L151.238916,3.70461494 L151.238916,117.879192 C151.238916,119.747356 150.242262,121.473611 148.624384,122.407693 L9.54926108,202.702751 L9.54926108,85.509185 Z" id="Path" fill-opacity="0.25" fill="#00C8FF"></path>
                                    <path d="M1.091133,197.423902 L138.666256,117.994869 C139.974733,117.23942 140.780788,115.843292 140.780788,114.332394 L140.780788,1.88986782 L1.091133,82.5397372 L1.091133,197.423902 Z M0.0911330049,81.962387 L141.780788,0.157816911 L141.780788,114.332394 C141.780787,116.200558 140.784134,117.926813 139.166256,118.860894 L0.0911330049,199.155952 L0.0911330049,81.962387 Z" id="Path" fill-opacity="0.15" fill="#00C8FF"></path>
                                    <path d="M18.129931,204.925927 L18.129931,90.2522246 C18.1299314,89.407459 18.5806086,88.6268636 19.312197,88.2044808 L154.871657,9.93920394 C155.685985,9.4690543 156.689277,9.46905625 157.503603,9.93920907 C158.317929,10.4093619 158.819574,11.2782384 158.819574,12.2185419 L158.819574,123.698719 L18.129931,204.925927 Z" id="Path" fill="url(#linearGradient-8)"></path>
                                    <path d="M23.0541872,207.748055 L23.0541872,91.7091901 L163.743842,10.4819704 L163.743842,123.790487 C163.743842,125.480018 162.842487,127.041209 161.37931,127.885974 L23.0541872,207.748055 Z" id="Path" fill="#EFEFEF"></path>
                                    <path d="M23.0541872,207.748055 L23.0541872,91.7091901 L163.743842,10.4819704 L163.743842,123.790487 C163.743842,125.480018 162.842487,127.041209 161.37931,127.885974 L23.0541872,207.748055 Z" id="Path" fill="url(#linearGradient-9)"></path>
                                    <polygon id="Path" fill="#FFFFFF" points="26.0748768 93.0041379 163.743842 13.5215764 163.743842 10.4819704 23.0541872 91.7095567 23.0541872 207.747783 26.0748768 206.003941"></polygon>
                                    <polygon id="Path" fill="url(#linearGradient-10)" points="152.5704 120.069848 152.730869 27.3314246 203.940887 56.8975448 203.940887 149.728611"></polygon>
                                    <polygon id="Path" fill="url(#linearGradient-11)" points="23.3816749 216.724729 163.743842 135.536158 203.940887 158.744039 63.5787192 239.932611"></polygon>
                                    <polygon id="Path" fill="url(#linearGradient-12)" points="33.1129064 190.347192 33.5077833 97.7438424 152.731034 27.3316256 152.570246 120.069754"></polygon>
                                    <polygon id="Path" fill="#00C8FF" opacity="0.25" points="33.506601 99.4333005 152.727488 29.022266 152.731034 27.3316256 33.506601 97.7438424"></polygon>
                                    <polygon id="Path" fill="#00C8FF" opacity="0.25" points="33.506601 190.239606 152.727488 119.828571 152.731034 118.136749 33.506601 188.550148"></polygon>
                                    <path d="M23.0541872,91.7091901 L19.9131429,89.9090365 C19.5460935,89.6986766 19.3194202,89.3082239 19.3187467,88.8851683 C19.3180732,88.4621127 19.5435021,88.0709403 19.9098798,87.8594128 L157.641671,8.33994089 C158.370908,7.91892066 159.269022,7.91747966 159.999606,8.33615764 L163.743842,10.4819704 L23.0541872,91.7091901 Z" id="Path" fill="url(#linearGradient-13)"></path>
                                    <path d="M23.0541872,207.748055 L18.129931,204.925986 L18.129931,90.8378246 C18.1299293,90.4346042 18.3447075,90.0619109 18.6935853,89.8597451 C19.042463,89.6575794 19.4726129,89.6565532 19.8224512,89.8570522 L23.0541872,91.7091901 L23.0541872,207.748055 Z" id="Path" fill="url(#linearGradient-14)"></path>
                                    <polygon id="Path" fill="url(#linearGradient-15)" points="33.4029517 190.47509 33.5634207 97.736666 84.7734384 127.302774 84.7734384 220.13384"></polygon>
                                    <path d="M113.860315,92.7767054 C113.860315,113.384607 106.40627,136.717833 92.5725872,155.44307 L152.209998,120.151815 L152.509253,27.6011941 L101.189734,57.8704197 C107.831101,64.0656236 113.860315,79.2084296 113.860315,92.7767054 Z" id="Path" fill="url(#linearGradient-16)"></path>
                                    <g id="Group" transform="translate(50.837438, 79.211823)" fill="#00C8FF">
                                        <polygon id="Path" points="7.03586601 44.7582266 1.92868966 61.7140493 0.704855172 62.4206424 5.78605714 45.4798345"></polygon>
                                        <polygon id="Path" points="16.1487842 43.2826995 12.8583015 55.1446108 11.6754562 55.8281143 8.40057931 47.7554601 9.81663842 46.9380296 12.275267 53.4451153 14.7327369 44.10013"></polygon>
                                        <path d="M24.3877005,48.4885951 L23.0969025,49.2332808 C22.972927,48.7387419 22.9194801,48.229161 22.9381478,47.7196611 C22.3472255,49.2148246 21.2895827,50.4793785 19.9224473,51.325336 C19.4271122,51.6827848 18.781311,51.7562893 18.2183172,51.5192985 C17.7264946,51.277998 17.4817655,50.741131 17.4817655,49.914467 C17.4823454,49.4197256 17.569682,48.9289186 17.7398069,48.4643468 C17.9234764,47.9673992 18.1786254,47.4998882 18.497202,47.0765675 C18.856039,46.5971271 19.2638786,46.1564004 19.7141084,45.761533 C20.2495888,45.2912788 20.8177103,44.8595499 21.4142069,44.4695882 L22.8718345,43.4939823 L22.8718345,43.0159921 C22.8718345,41.3072236 22.1775606,40.8534818 20.7890128,41.6547665 C20.3429295,41.9346151 19.9256403,42.257929 19.5432473,42.6199803 C19.0804818,43.0306179 18.6474008,43.4735364 18.2472591,43.9454069 L17.9066601,43.0714049 C18.8373598,41.9148999 19.9517005,40.9191186 21.2051823,40.1238266 C23.1829399,38.9831212 24.1718187,39.6138956 24.1718187,42.0161498 L24.1718187,46.2994995 C24.1582659,47.0351159 24.2307178,47.7697963 24.3877005,48.4885951 Z M22.8717635,46.4092374 L22.8717754,44.6023567 C21.6998857,45.4001576 20.895736,45.9778207 20.4593143,46.3353458 C20.0233533,46.6918778 19.6416166,47.1099761 19.3261123,47.5764887 C19.0235639,47.9981422 18.8566323,48.5019515 18.8475429,49.0208394 C18.8475429,49.4665537 18.9832079,49.7482049 19.2551054,49.863665 C19.6128381,49.9688363 19.999236,49.8986196 20.2970956,49.6743133 C20.8308097,49.3420758 21.2972779,48.9124248 21.6721773,48.4077635 C22.150192,47.7917287 22.5529108,47.1208007 22.8717754,46.4092374 L22.8717635,46.4092374 Z" id="Shape"></path>
                                        <path d="M32.1549872,34.3094778 L31.6296591,36.045931 C31.1096518,36.0749254 30.6029012,36.220952 30.1472039,36.4731192 C29.7110833,36.7421002 29.3294166,37.090672 29.0220887,37.5006739 C28.6234289,38.0159541 28.2839575,38.5744163 28.010069,39.1655409 C27.8296951,39.5052836 27.6749398,39.8580198 27.5470936,40.2208079 L27.5470936,46.6643941 L26.2551488,47.4102384 L26.2551488,37.4475665 L27.5470936,36.7017222 L27.5470936,38.7198502 C27.9768647,37.1730579 28.9314375,35.8239952 30.2470936,34.9040394 C30.823677,34.5501837 31.4794567,34.3458215 32.1549872,34.3094778 L32.1549872,34.3094778 Z" id="Path"></path>
                                        <polygon id="Path" points="40.196465 25.6133557 35.0892887 42.5691783 33.8654542 43.2757714 38.946668 26.3337931"></polygon>
                                        <polygon id="Path" points="49.10387 34.2194246 45.5553458 36.2676059 45.5553458 24.0685714 43.2883744 25.3778365 43.2883744 24.0870384 46.854798 22.0273064 46.854798 34.2263527 49.10387 32.9286266"></polygon>
                                        <path d="M54.2208709,21.062069 C55.4158345,20.3728 56.3658404,20.3027586 57.0708887,20.8519448 C57.886857,21.6912537 58.2761302,22.85651 58.1284729,24.017734 C58.1379991,25.5532604 57.7751105,27.0682059 57.0709005,28.4327645 C56.4436028,29.7192658 55.4526828,30.7934832 54.2208828,31.5223567 C53.0212768,32.2150936 52.0701163,32.2843665 51.367401,31.7301754 C50.5512819,30.8769863 50.1639383,29.7009667 50.3132926,28.5297813 C50.3039763,27.0010733 50.667583,25.4931528 51.372603,24.1366936 C52.0034593,22.8570766 52.9931352,21.7887495 54.2208709,21.062069 L54.2208709,21.062069 Z M54.2208709,30.222266 C55.066205,29.7006767 55.7208846,28.9204839 56.0877872,27.9974305 C56.5365875,26.9986185 56.7693103,25.9162585 56.7707113,24.8212493 C56.85528,23.9522188 56.6148594,23.0826739 56.0958739,22.3805202 C55.6455961,21.9013793 55.0205951,21.8921419 54.2208709,22.3528079 C53.379228,22.8599705 52.7222888,23.6235315 52.3464473,24.5314522 C51.8961293,25.5474904 51.6689598,26.6482921 51.680264,27.7595941 C51.6039067,28.6174759 51.8439273,29.4736657 52.3551015,30.1668414 C52.8053951,30.6610522 53.4273182,30.6795547 54.2208709,30.2223488 L54.2208709,30.222266 Z" id="Shape"></path>
                                        <path d="M63.2039409,22.3205675 C62.392867,23.2419074 61.9872315,23.8746049 61.9870345,24.2186601 C61.9786802,24.2974462 62.0043593,24.3760513 62.0576147,24.4347104 C62.1108702,24.4933696 62.1866356,24.5265022 62.2658601,24.5257773 C62.5394209,24.5205843 62.8051849,24.4337378 63.0290246,24.2763901 L65.9523192,22.4926108 C66.4106728,22.1341662 67.007554,22.0045022 67.5733123,22.1404729 C67.9595192,22.306731 68.1525241,22.7466167 68.1523271,23.46013 C68.1022804,24.7247261 67.640058,25.9382634 66.836134,26.9157163 C66.012769,28.0434778 64.9662176,28.9898124 63.7615448,29.6958857 C63.074166,30.1794039 62.2427646,30.4147357 61.4039409,30.3632158 C60.7931823,30.253533 60.4876099,29.8325044 60.4872236,29.10013 C60.6180562,28.0197724 61.1185679,27.0179302 61.9038621,26.264536 C61.1210759,26.2957084 60.7294897,26.0055291 60.7291034,25.393998 C60.9164137,24.3104008 61.4480097,23.3160386 62.2450404,22.5584039 C61.807419,22.5210175 61.4113796,22.2842311 61.1713064,21.9164335 C60.9068033,21.4921903 60.7760607,20.9981798 60.7960788,20.4986365 C60.8108132,19.5097478 61.0991412,18.5442607 61.6290916,17.7092335 C62.1304617,16.8396373 62.8478972,16.1142485 63.7119133,15.6033222 C64.1976246,15.2904939 64.7589464,15.1149522 65.3363468,15.0953143 L67.911003,13.1579704 L67.911003,14.6127133 L66.2524847,15.5698404 C66.5314204,16.0411102 66.6619714,16.585458 66.627133,17.1319803 C66.6052387,18.1126605 66.3207665,19.0695278 65.8033537,19.9028926 C65.3076896,20.7893465 64.5860789,21.5287017 63.7119251,22.0457498 C63.5341123,22.1496788 63.3647842,22.2412847 63.2039409,22.3205675 Z M63.7615921,28.5390148 C64.6105298,28.0507414 65.3538633,27.3984795 65.9483232,26.620197 C66.4753264,26.024092 66.7928179,25.271928 66.8523429,24.4784985 C66.8523429,23.8157833 66.4247567,23.7315074 65.5695842,24.2256709 C65.2867153,24.3884453 64.7981438,24.6893911 64.10387,25.1285084 C63.6645635,25.406735 63.3199291,25.6184039 63.0699665,25.7635153 C62.8418418,25.9529843 62.6489585,26.18124 62.500197,26.4377734 C62.2708993,26.7633554 62.0725952,27.109695 61.9078818,27.4722562 C61.7834105,27.7348116 61.714059,28.0200875 61.7041064,28.3104828 C61.6859145,28.4754622 61.7361186,28.6406901 61.843019,28.7676605 C61.9499193,28.8946309 62.1041776,28.9722524 62.2698443,28.9824355 C62.8021526,29.0014286 63.3260507,28.8456913 63.7615448,28.539003 L63.7615921,28.5390148 Z M63.7119369,20.8889261 C64.2104883,20.5917122 64.6159953,20.1610081 64.8826522,19.645466 C65.1799135,19.11038 65.3360642,18.5084274 65.3363941,17.8963153 C65.3363941,17.2520749 65.1891862,16.8337419 64.8947704,16.6413163 C64.60093,16.4473537 64.2055094,16.4947153 63.7119251,16.7787074 C63.218866,17.0784986 62.817054,17.5072668 62.549864,18.0187271 C62.2426297,18.5539244 62.0802673,19.1599877 62.078802,19.7770995 C62.0177244,20.2328658 62.1957452,20.6879483 62.549864,20.9812966 C62.9209624,21.1850432 63.3776569,21.1487359 63.7119015,20.8889143 L63.7119369,20.8889261 Z" id="Shape"></path>
                                        <path d="M75.1102581,10.6664749 C74.3866156,10.8107618 73.6915684,11.0728678 73.0528433,11.4423369 C72.4151405,11.7940714 71.8473299,12.2597442 71.3775724,12.8162601 C71.0133013,13.2117888 70.7960387,13.7204991 70.7621911,14.2571468 C70.7351159,14.4909037 70.8452756,14.7193128 71.0450601,14.8436571 C71.4187212,14.9475675 71.8159377,14.9281337 72.1776709,14.7882443 L73.4193931,14.4822857 C73.8731043,14.3481172 74.3477495,14.2991847 74.8192906,14.3379665 C75.1456205,14.3676993 75.4424998,14.5390337 75.6315074,14.8067113 C75.8320756,15.1443999 75.9264102,15.5346194 75.9022463,15.9266365 C75.8712664,16.9646644 75.50579,17.9649133 74.8602562,18.7783921 C74.15409,19.742739 73.2513674,20.5462972 72.2117084,21.1359961 C71.4166973,21.6565864 70.5130907,21.9883298 69.5700887,22.1058207 L69.8200552,20.6707034 C70.651015,20.6141276 71.4552176,20.3535953 72.1614975,19.9121616 C72.8374937,19.5347231 73.4354275,19.0320026 73.9233458,18.430865 C74.3266675,17.9834513 74.5660386,17.4122989 74.6022266,16.8110187 C74.6301575,16.5251639 74.501437,16.2465296 74.2656709,16.0824946 C73.7418775,15.9401297 73.1867153,15.9647497 72.6775803,16.1529222 C72.0056276,16.3053241 71.5112867,16.4138522 71.1945576,16.4785064 C70.9035493,16.5443582 70.6010869,16.5404001 70.3119015,16.4669557 C70.0503402,16.4031707 69.8260527,16.2355794 69.6907507,16.0028217 C69.5363173,15.712023 69.4631291,15.3849715 69.4788887,15.0560867 C69.5127267,14.1008771 69.857969,13.1829297 70.4619901,12.4421675 C71.1660466,11.5166196 72.0538076,10.7465843 73.0695606,10.1803862 C73.8007041,9.76368054 74.5856368,9.44941151 75.4023369,9.24639606 L75.1102581,10.6664749 Z" id="Path"></path>
                                        <polygon id="Path" points="84.1943172 0.210809852 79.0871409 17.1666325 77.8633064 17.8732256 82.9445084 0.932417734"></polygon>
                                        <path d="M86.2961852,10.5567842 C86.5083374,10.3970722 86.7906597,10.3656497 87.0327369,10.4748059 C87.2545696,10.6241154 87.3724834,10.8863511 87.3369576,11.1513813 C87.3287485,11.5250126 87.2239407,11.8901534 87.0327369,12.2112591 C86.8634019,12.5373507 86.6088638,12.8114591 86.2961852,13.0044414 C86.0855156,13.1671839 85.7979221,13.1880988 85.5659232,13.0575488 C85.3512102,12.8859152 85.2397903,12.6159683 85.270936,12.3428571 C85.2974245,11.6149038 85.6809486,10.9467627 86.2961852,10.5567606 L86.2961852,10.5567842 Z M89.7367685,8.56979704 C89.9496802,8.40714848 90.2349383,8.37518289 90.4785695,8.48667192 C90.697362,8.63821012 90.8130216,8.89939125 90.7781793,9.16324729 C90.7697633,9.53729055 90.6647644,9.90280132 90.4733793,10.2242837 C90.3045618,10.5507395 90.0499077,10.824973 89.7368276,11.017466 C89.5284188,11.1779796 89.2438293,11.1971121 89.0158108,11.0659389 C88.8005531,10.8951597 88.6886029,10.6254316 88.719665,10.3524177 C88.7242174,9.99115033 88.8250508,9.63763558 89.0117675,9.32832709 C89.1814364,9.0153323 89.4317587,8.75343337 89.7367685,8.56979704 L89.7367685,8.56979704 Z M93.1363626,6.60704631 C93.349069,6.44498856 93.6336663,6.41304712 93.8770049,6.52392118 C94.0959938,6.67586528 94.2118212,6.93736304 94.1771941,7.20164335 C94.1689849,7.57527468 94.0641772,7.94041548 93.8729734,8.26152118 C93.7036383,8.58761273 93.4491003,8.86172118 93.1364217,9.05470345 C92.9264745,9.21465992 92.6415755,9.23463555 92.4113616,9.10554089 C92.1934054,8.93759373 92.0794707,8.66766119 92.1111724,8.39433695 C92.1385733,7.66633684 92.5218237,6.99823946 93.1364217,6.60708177 L93.1363626,6.60704631 Z" id="Shape"></path>
                                    </g>
                                </g>
                                <g id="Console-Small" transform="translate(13.000000, 196.000000)">
                                    <path d="M0.268462271,90.0038747 L0.268462271,37.7049895 C0.268462427,37.3197198 0.474001406,36.963716 0.807654719,36.7710812 L62.6318436,1.07687544 C63.0032317,0.862455725 63.4607999,0.862456616 63.8321871,1.07687777 C64.2035744,1.29129893 64.4323582,1.68756477 64.4323582,2.11640613 L64.4323582,52.9588301 L0.268462271,90.0038747 Z" id="Path" fill="url(#linearGradient-1)"></path>
                                    <path d="M2.51425274,91.290954 L2.51425274,38.3694633 L66.678154,1.3244133 L66.678154,53.0006822 C66.6781537,53.7712215 66.2670758,54.4832291 65.5997692,54.8684988 L2.51425274,91.290954 Z" id="Path" fill="#EFEFEF"></path>
                                    <path d="M2.51425274,91.290954 L2.51425274,38.3694633 L66.678154,1.3244133 L66.678154,53.0006822 C66.6781537,53.7712215 66.2670758,54.4832291 65.5997692,54.8684988 L2.51425274,91.290954 Z" id="Path" fill="url(#linearGradient-2)"></path>
                                    <polygon id="Path" fill="#FFFFFF" points="3.89188944 38.9600462 66.678154 2.71067708 66.678154 1.3244133 2.51425274 38.3696304 2.51425274 91.29083 3.89188944 90.4955212"></polygon>
                                    <polygon id="Path" fill="url(#linearGradient-3)" points="7.10170208 83.3549956 7.28179236 41.1216687 61.6555764 9.00898407 61.5822462 51.3037789"></polygon>
                                    <polygon id="Path" fill="#00C8FF" opacity="0.25" points="7.28125317 41.8921747 61.6539588 9.78002927 61.6555764 9.00898407 7.28125317 41.1216687"></polygon>
                                    <polygon id="Path" fill="#00C8FF" opacity="0.25" points="7.28125317 83.3059291 61.6539588 51.1937836 61.6555764 50.4221992 7.28125317 82.535423"></polygon>
                                    <path d="M2.51425274,38.3694633 L1.08172624,37.5484727 C0.914327164,37.4525345 0.810948966,37.274462 0.810641798,37.0815203 C0.81033463,36.8885786 0.913145312,36.7101778 1.08023807,36.6137071 L63.8951554,0.347504421 C64.2277361,0.155491013 64.6373364,0.154833819 64.9705316,0.345779005 L66.678154,1.3244133 L2.51425274,38.3694633 Z" id="Path" fill="url(#linearGradient-4)"></path>
                                    <path d="M2.51425274,91.290954 L0.268462271,90.0039017 L0.268462271,37.9720623 C0.268461488,37.7881668 0.366414727,37.6181937 0.525526341,37.5259926 C0.684637955,37.4337914 0.880815092,37.4333234 1.04036479,37.5247644 L2.51425274,38.3694633 L2.51425274,91.290954 Z" id="Path" fill="url(#linearGradient-5)"></path>
                                    <polygon id="Path" fill="url(#linearGradient-6)" points="7.23398217 83.4133254 7.30716676 41.1183958 30.6623631 54.6025205 30.6623631 96.9397013"></polygon>
                                    <path d="M43.9279262,38.8563217 C43.9279262,48.2549044 40.5283825,58.8964173 34.2192971,67.4363792 L61.4179489,51.3412042 L61.5544293,9.13192534 L38.1492929,22.9367186 C41.1782011,25.7621463 43.9279262,32.6682796 43.9279262,38.8563217 Z" id="Path" fill="url(#linearGradient-7)"></path>
                                    <g id="Group" transform="translate(15.185275, 32.669827)" fill="#00C8FF">
                                        <polygon id="Path" points="3.20882592 20.4127477 0.8796116 28.1457379 0.321461146 28.4679917 2.63882941 20.7418492"></polygon>
                                        <polygon id="Path" points="7.3649267 19.7398086 5.86424628 25.1496342 5.32478963 25.4613576 3.83122655 21.7796868 4.4770443 21.4068838 5.59834352 24.3745505 6.71911434 20.1126116"></polygon>
                                        <path d="M11.1224241,22.1140455 L10.5337338,22.453672 C10.4771927,22.2281291 10.4528173,21.9957261 10.461331,21.7633601 C10.1918309,22.4452547 9.70947494,23.021976 9.08596968,23.4077892 C8.8600637,23.5708098 8.56553513,23.6043328 8.3087723,23.4962491 C8.08446824,23.3861999 7.9728554,23.1413526 7.9728554,22.7643385 C7.97311987,22.5387033 8.01295119,22.3148624 8.09053955,22.1029866 C8.17430512,21.8763452 8.29067016,21.6631289 8.4359624,21.4700663 C8.5996161,21.2514094 8.78561827,21.0504085 8.99095319,20.8703226 C9.23516812,20.6558552 9.49426957,20.4589579 9.76631193,20.2811093 L10.4310877,19.8361676 L10.4310877,19.6181721 C10.4310877,18.8388593 10.1144523,18.6319226 9.48118157,18.9973621 C9.27773773,19.1249918 9.08742589,19.2724446 8.9130291,19.4375642 C8.70197706,19.6248425 8.50446314,19.826843 8.32197173,20.0420475 L8.16663578,19.6434441 C8.59109715,19.1160004 9.09931112,18.6618574 9.67098271,18.299151 C10.5729726,17.778913 11.0239675,18.0665884 11.0239675,19.1621771 L11.0239675,21.1156713 C11.0177865,21.4511617 11.0508295,21.7862251 11.1224241,22.1140455 Z M10.4310553,21.1657192 L10.4310607,20.3416606 C9.8966006,20.7055112 9.52985448,20.9689642 9.33081698,21.1320196 C9.1319896,21.2946221 8.9578921,21.4853029 8.81400101,21.6980639 C8.67601868,21.8903661 8.59988671,22.1201369 8.5957413,22.3567845 C8.5957413,22.5600601 8.65761364,22.6885119 8.78161712,22.7411694 C8.94476716,22.7891346 9.12099047,22.757111 9.25683438,22.6548123 C9.50024374,22.5032898 9.7129845,22.3073402 9.88396372,22.0771809 C10.1019704,21.7962278 10.2856371,21.4902397 10.4310607,21.1657192 L10.4310553,21.1657192 Z" id="Shape"></path>
                                        <path d="M14.6648268,15.6474188 L14.425242,16.4393577 C14.1880839,16.452581 13.9569717,16.5191789 13.7491432,16.6341841 C13.550243,16.7568574 13.3761774,16.9158295 13.2360153,17.1028178 C13.0541998,17.3378201 12.8993781,17.5925162 12.7744666,17.8621086 C12.692204,18.017054 12.6216253,18.1779253 12.5633188,18.343381 L12.5633188,21.2820877 L11.9741055,21.6222426 L11.9741055,17.0785973 L12.5633188,16.7384423 L12.5633188,17.6588438 C12.7593232,16.953403 13.1946723,16.3381401 13.7946996,15.9185786 C14.0576602,15.7571968 14.3567397,15.6639939 14.6648268,15.6474188 L14.6648268,15.6474188 Z" id="Path"></path>
                                        <polygon id="Path" points="18.332279 11.6814049 16.0030647 19.4143951 15.4449143 19.7366489 17.7622879 12.0099726"></polygon>
                                        <polygon id="Path" points="22.394652 15.6063485 20.7762874 16.5404563 20.7762874 10.9768799 19.7423967 11.5739924 19.7423967 10.985302 21.3689246 10.0459264 21.3689246 15.6095081 22.394652 15.0176582"></polygon>
                                        <path d="M24.728347,9.60571346 C25.2733304,9.29136067 25.7065967,9.25941711 26.0281459,9.50988279 C26.4002821,9.89266383 26.5778167,10.4240987 26.5104751,10.9536946 C26.5148197,11.6539974 26.3493182,12.344914 26.0281513,12.9672441 C25.7420615,13.5539748 25.2901357,14.0438898 24.7283524,14.3763049 C24.1812518,14.6922393 23.7474589,14.7238324 23.4269737,14.4710842 C23.0547687,14.0819728 22.8781141,13.5456292 22.9462297,13.0114902 C22.9419808,12.314297 23.1078098,11.6265844 23.4293461,11.0079481 C23.7170589,10.4243571 24.1684173,9.93712841 24.728347,9.60571346 L24.728347,9.60571346 Z M24.728347,13.7833765 C25.1138759,13.5454969 25.4124537,13.1896768 25.5797858,12.7687026 C25.7844688,12.3131775 25.890606,11.8195489 25.8912449,11.3201513 C25.9298139,10.9238153 25.820166,10.5272446 25.5834739,10.2070155 C25.378117,9.98849517 25.0930747,9.98428228 24.728347,10.1943768 C24.3445015,10.4256769 24.0448932,10.7739119 23.8734843,11.1879845 C23.6681092,11.6513659 23.5645047,12.1534052 23.5696602,12.6602333 C23.5348361,13.0514848 23.6443016,13.4419647 23.8774312,13.7580992 C24.0827952,13.9834924 24.3664338,13.9919308 24.728347,13.7834143 L24.728347,13.7833765 Z" id="Shape"></path>
                                        <path d="M28.8252283,10.179673 C28.4553243,10.5998657 28.2703273,10.8884181 28.2702375,11.0453303 C28.2664274,11.0812621 28.2781388,11.1171112 28.3024268,11.1438637 C28.3267149,11.1706162 28.361269,11.185727 28.3974006,11.1853964 C28.5221627,11.183028 28.6433689,11.1434202 28.7454547,11.0716591 L30.0786728,10.2581363 C30.2877127,10.0946616 30.5599305,10.0355261 30.8179542,10.0975379 C30.9940904,10.1733627 31.0821135,10.37398 31.0820237,10.6993899 C31.059199,11.2761303 30.8483947,11.8295846 30.4817515,12.2753685 C30.1062419,12.7897032 29.6289444,13.2212952 29.079533,13.5433119 C28.7660422,13.7638286 28.3868675,13.8711556 28.0043078,13.8476591 C27.7257609,13.7976364 27.5863995,13.6056192 27.5862233,13.2716074 C27.6458917,12.778892 27.8741586,12.3219849 28.2323053,11.9783867 C27.8753024,11.9926034 27.6967129,11.8602622 27.6965367,11.5813631 C27.7819627,11.0871702 28.0244061,10.6336745 28.3879055,10.2881424 C28.1883208,10.2710917 28.0077003,10.1631012 27.8982109,9.99536088 C27.7775797,9.80187756 27.7179524,9.57657571 27.727082,9.34875052 C27.7338018,8.89775108 27.8652987,8.45742435 28.1069916,8.07659603 C28.3356499,7.68000196 28.6628485,7.34917609 29.0568977,7.11615948 C29.2784145,6.97348887 29.5344149,6.89343008 29.7977481,6.88447388 L30.9719637,6.00091539 L30.9719637,6.66437552 L30.2155683,7.10088955 C30.3427817,7.31582015 30.4023217,7.56407916 30.386433,7.81332993 C30.3764478,8.26058574 30.2467094,8.69698128 30.0107345,9.07705144 C29.7846785,9.48133376 29.4555757,9.81852924 29.0569031,10.0543378 C28.9758085,10.1017364 28.8985836,10.1435148 28.8252283,10.179673 Z M29.0795546,13.0157013 C29.466727,12.7930159 29.8057368,12.4955408 30.0768503,12.140592 C30.3171991,11.8687282 30.4619965,11.525691 30.4891438,11.1638341 C30.4891438,10.8615915 30.2941359,10.8231561 29.90412,11.0485277 C29.7751128,11.1227638 29.5522915,11.2600152 29.2356562,11.4602821 C29.035303,11.587172 28.8781266,11.6837072 28.764127,11.7498877 C28.6600869,11.8362983 28.5721192,11.9403982 28.504274,12.0573946 C28.3996989,12.2058818 28.3092589,12.3638358 28.2341385,12.529188 C28.1773713,12.6489308 28.1457424,12.7790357 28.1412033,12.9114754 C28.1329066,12.9867171 28.1558031,13.0620721 28.2045568,13.1199791 C28.2533105,13.1778861 28.3236626,13.2132867 28.3992177,13.2179308 C28.6419859,13.226593 28.8809185,13.1555663 29.079533,13.0156959 L29.0795546,13.0157013 Z M29.0569085,9.52674873 C29.2842813,9.39119928 29.4692196,9.1947694 29.590833,8.95964768 C29.7264041,8.71561262 29.7976192,8.44108194 29.7977697,8.16191784 C29.7977697,7.86810109 29.730633,7.67731324 29.5963597,7.58955428 C29.4623489,7.50109436 29.2820105,7.52269441 29.0569031,7.65221383 C28.8320351,7.7889387 28.6487819,7.98448568 28.5269254,8.21774583 C28.386806,8.46183163 28.3127579,8.73823708 28.3120896,9.01968137 C28.2842341,9.22754129 28.3654235,9.43508939 28.5269254,9.56887583 C28.6961711,9.66179796 28.9044544,9.64523939 29.0568923,9.52674334 L29.0569085,9.52674873 Z" id="Shape"></path>
                                        <path d="M34.255306,4.86462662 C33.9252766,4.9304311 33.6082885,5.04996898 33.3169871,5.21847166 C33.026152,5.37888611 32.7671923,5.59126411 32.5529514,5.8450726 C32.3868194,6.02546016 32.2877331,6.25746611 32.2722964,6.50221339 C32.2599482,6.60882218 32.3101885,6.71299202 32.4013036,6.76970137 C32.571718,6.81709145 32.7528754,6.80822836 32.9178499,6.74442942 L33.4841584,6.60489181 C33.691081,6.54370197 33.907551,6.5213855 34.1226054,6.53907259 C34.2714336,6.55263274 34.4068304,6.63077268 34.4930306,6.75285161 C34.5845031,6.90686023 34.627526,7.08482644 34.6165056,7.26361244 C34.6023767,7.73702266 34.435695,8.19320313 34.1412884,8.56420394 C33.8192293,9.00401068 33.4075274,9.37048702 32.9333733,9.63942917 C32.570795,9.87685321 32.1586899,10.0281504 31.7286178,10.0817341 L31.8426193,9.42722459 C32.2215926,9.40142222 32.5883629,9.28260204 32.9104738,9.08127871 C33.2187733,8.90914149 33.4914711,8.67986729 33.7139945,8.40570832 C33.8979362,8.20165773 34.0071055,7.94117397 34.0236096,7.66694996 C34.036348,7.53658102 33.9776428,7.40950512 33.8701177,7.33469418 C33.6312328,7.26976626 33.3780417,7.28099461 33.1458421,7.36681388 C32.8393866,7.43631938 32.6139341,7.48581545 32.4694844,7.51530208 C32.3367652,7.54533491 32.1988221,7.54352974 32.0669341,7.51003417 C31.9476447,7.48094396 31.8453546,7.40451112 31.7836478,7.298358 C31.7132158,7.16573436 31.6798371,7.01657694 31.6870245,6.86658347 C31.7024569,6.43094397 31.8599105,6.0122985 32.1353846,5.67446132 C32.4564815,5.2523495 32.8613599,4.9011619 33.3246113,4.64293764 C33.6580617,4.45289196 34.0160435,4.30956425 34.3885135,4.21697561 L34.255306,4.86462662 Z" id="Path"></path>
                                        <polygon id="Path" points="38.3982451 0.0961434054 36.0690308 7.82913366 35.5108803 8.15138741 37.8282486 0.425244908"></polygon>
                                        <path d="M39.3568376,4.81460034 C39.4535932,4.74176098 39.5823511,4.72743021 39.6927545,4.77721274 C39.7939251,4.84530785 39.8477016,4.96490491 39.8314995,5.0857764 C39.8277556,5.2561773 39.7799562,5.42270595 39.6927545,5.56915165 C39.6155264,5.71787122 39.49944,5.84288303 39.3568376,5.93089586 C39.2607581,6.00511734 39.1295963,6.01465592 39.0237892,5.95511638 C38.9258657,5.87683999 38.8750508,5.75372612 38.8892553,5.62916916 C38.9013359,5.29717369 39.0762485,4.99245665 39.3568376,4.81458956 L39.3568376,4.81460034 Z M40.9259739,3.90840116 C41.0230759,3.83422253 41.1531727,3.81964408 41.2642848,3.87049054 C41.3640689,3.93960211 41.4168174,4.05871819 41.400927,4.1790542 C41.3970887,4.34964297 41.3492022,4.51634035 41.2619178,4.66295786 C41.1849257,4.81184356 41.0687864,4.93691236 40.9260009,5.02470207 C40.8309525,5.09790702 40.7011606,5.10663274 40.597169,5.04680896 C40.498997,4.9689222 40.4479402,4.84590814 40.4621066,4.72139554 C40.4641828,4.55663341 40.5101696,4.39540702 40.5953249,4.25434165 C40.6727053,4.11159507 40.786869,3.99215162 40.9259739,3.90840116 L40.9259739,3.90840116 Z M42.4764164,3.01325543 C42.5734248,2.93934625 42.7032202,2.92477881 42.8141989,2.97534481 C42.9140725,3.04464149 42.9668975,3.16390197 42.9511053,3.28443149 C42.9473613,3.45483238 42.899562,3.62136103 42.8123603,3.76780673 C42.7351321,3.91652631 42.6190457,4.04153811 42.4764434,4.12955095 C42.3806934,4.2025018 42.2507604,4.21161203 42.1457674,4.15273622 C42.0463648,4.07614107 41.9944029,3.95303376 42.0088611,3.82837961 C42.0213577,3.49636283 42.1961456,3.19166569 42.4764434,3.0132716 L42.4764164,3.01325543 Z" id="Shape"></path>
                                    </g>
                                </g>
                                <g id="Console-Small-Copy" transform="translate(145.000000, 0.000000)">
                                    <path d="M0.268462271,90.0038747 L0.268462271,37.7049895 C0.268462427,37.3197198 0.474001406,36.963716 0.807654719,36.7710812 L62.6318436,1.07687544 C63.0032317,0.862455725 63.4607999,0.862456616 63.8321871,1.07687777 C64.2035744,1.29129893 64.4323582,1.68756477 64.4323582,2.11640613 L64.4323582,52.9588301 L0.268462271,90.0038747 Z" id="Path" fill="url(#linearGradient-1)"></path>
                                    <path d="M2.51425274,91.290954 L2.51425274,38.3694633 L66.678154,1.3244133 L66.678154,53.0006822 C66.6781537,53.7712215 66.2670758,54.4832291 65.5997692,54.8684988 L2.51425274,91.290954 Z" id="Path" fill="#EFEFEF"></path>
                                    <path d="M2.51425274,91.290954 L2.51425274,38.3694633 L66.678154,1.3244133 L66.678154,53.0006822 C66.6781537,53.7712215 66.2670758,54.4832291 65.5997692,54.8684988 L2.51425274,91.290954 Z" id="Path" fill="url(#linearGradient-2)"></path>
                                    <polygon id="Path" fill="#FFFFFF" points="3.89188944 38.9600462 66.678154 2.71067708 66.678154 1.3244133 2.51425274 38.3696304 2.51425274 91.29083 3.89188944 90.4955212"></polygon>
                                    <polygon id="Path" fill="url(#linearGradient-3)" points="7.10170208 83.3549956 7.28179236 41.1216687 61.6555764 9.00898407 61.5822462 51.3037789"></polygon>
                                    <polygon id="Path" fill="#00C8FF" opacity="0.25" points="7.28125317 41.8921747 61.6539588 9.78002927 61.6555764 9.00898407 7.28125317 41.1216687"></polygon>
                                    <polygon id="Path" fill="#00C8FF" opacity="0.25" points="7.28125317 83.3059291 61.6539588 51.1937836 61.6555764 50.4221992 7.28125317 82.535423"></polygon>
                                    <path d="M2.51425274,38.3694633 L1.08172624,37.5484727 C0.914327164,37.4525345 0.810948966,37.274462 0.810641798,37.0815203 C0.81033463,36.8885786 0.913145312,36.7101778 1.08023807,36.6137071 L63.8951554,0.347504421 C64.2277361,0.155491013 64.6373364,0.154833819 64.9705316,0.345779005 L66.678154,1.3244133 L2.51425274,38.3694633 Z" id="Path" fill="url(#linearGradient-4)"></path>
                                    <path d="M2.51425274,91.290954 L0.268462271,90.0039017 L0.268462271,37.9720623 C0.268461488,37.7881668 0.366414727,37.6181937 0.525526341,37.5259926 C0.684637955,37.4337914 0.880815092,37.4333234 1.04036479,37.5247644 L2.51425274,38.3694633 L2.51425274,91.290954 Z" id="Path" fill="url(#linearGradient-5)"></path>
                                    <polygon id="Path" fill="url(#linearGradient-6)" points="7.23398217 83.4133254 7.30716676 41.1183958 30.6623631 54.6025205 30.6623631 96.9397013"></polygon>
                                    <path d="M43.9279262,38.8563217 C43.9279262,48.2549044 40.5283825,58.8964173 34.2192971,67.4363792 L61.4179489,51.3412042 L61.5544293,9.13192534 L38.1492929,22.9367186 C41.1782011,25.7621463 43.9279262,32.6682796 43.9279262,38.8563217 Z" id="Path" fill="url(#linearGradient-7)"></path>
                                    <g id="Group" transform="translate(15.185275, 32.669827)" fill="#00C8FF">
                                        <polygon id="Path" points="3.20882592 20.4127477 0.8796116 28.1457379 0.321461146 28.4679917 2.63882941 20.7418492"></polygon>
                                        <polygon id="Path" points="7.3649267 19.7398086 5.86424628 25.1496342 5.32478963 25.4613576 3.83122655 21.7796868 4.4770443 21.4068838 5.59834352 24.3745505 6.71911434 20.1126116"></polygon>
                                        <path d="M11.1224241,22.1140455 L10.5337338,22.453672 C10.4771927,22.2281291 10.4528173,21.9957261 10.461331,21.7633601 C10.1918309,22.4452547 9.70947494,23.021976 9.08596968,23.4077892 C8.8600637,23.5708098 8.56553513,23.6043328 8.3087723,23.4962491 C8.08446824,23.3861999 7.9728554,23.1413526 7.9728554,22.7643385 C7.97311987,22.5387033 8.01295119,22.3148624 8.09053955,22.1029866 C8.17430512,21.8763452 8.29067016,21.6631289 8.4359624,21.4700663 C8.5996161,21.2514094 8.78561827,21.0504085 8.99095319,20.8703226 C9.23516812,20.6558552 9.49426957,20.4589579 9.76631193,20.2811093 L10.4310877,19.8361676 L10.4310877,19.6181721 C10.4310877,18.8388593 10.1144523,18.6319226 9.48118157,18.9973621 C9.27773773,19.1249918 9.08742589,19.2724446 8.9130291,19.4375642 C8.70197706,19.6248425 8.50446314,19.826843 8.32197173,20.0420475 L8.16663578,19.6434441 C8.59109715,19.1160004 9.09931112,18.6618574 9.67098271,18.299151 C10.5729726,17.778913 11.0239675,18.0665884 11.0239675,19.1621771 L11.0239675,21.1156713 C11.0177865,21.4511617 11.0508295,21.7862251 11.1224241,22.1140455 Z M10.4310553,21.1657192 L10.4310607,20.3416606 C9.8966006,20.7055112 9.52985448,20.9689642 9.33081698,21.1320196 C9.1319896,21.2946221 8.9578921,21.4853029 8.81400101,21.6980639 C8.67601868,21.8903661 8.59988671,22.1201369 8.5957413,22.3567845 C8.5957413,22.5600601 8.65761364,22.6885119 8.78161712,22.7411694 C8.94476716,22.7891346 9.12099047,22.757111 9.25683438,22.6548123 C9.50024374,22.5032898 9.7129845,22.3073402 9.88396372,22.0771809 C10.1019704,21.7962278 10.2856371,21.4902397 10.4310607,21.1657192 L10.4310553,21.1657192 Z" id="Shape"></path>
                                        <path d="M14.6648268,15.6474188 L14.425242,16.4393577 C14.1880839,16.452581 13.9569717,16.5191789 13.7491432,16.6341841 C13.550243,16.7568574 13.3761774,16.9158295 13.2360153,17.1028178 C13.0541998,17.3378201 12.8993781,17.5925162 12.7744666,17.8621086 C12.692204,18.017054 12.6216253,18.1779253 12.5633188,18.343381 L12.5633188,21.2820877 L11.9741055,21.6222426 L11.9741055,17.0785973 L12.5633188,16.7384423 L12.5633188,17.6588438 C12.7593232,16.953403 13.1946723,16.3381401 13.7946996,15.9185786 C14.0576602,15.7571968 14.3567397,15.6639939 14.6648268,15.6474188 L14.6648268,15.6474188 Z" id="Path"></path>
                                        <polygon id="Path" points="18.332279 11.6814049 16.0030647 19.4143951 15.4449143 19.7366489 17.7622879 12.0099726"></polygon>
                                        <polygon id="Path" points="22.394652 15.6063485 20.7762874 16.5404563 20.7762874 10.9768799 19.7423967 11.5739924 19.7423967 10.985302 21.3689246 10.0459264 21.3689246 15.6095081 22.394652 15.0176582"></polygon>
                                        <path d="M24.728347,9.60571346 C25.2733304,9.29136067 25.7065967,9.25941711 26.0281459,9.50988279 C26.4002821,9.89266383 26.5778167,10.4240987 26.5104751,10.9536946 C26.5148197,11.6539974 26.3493182,12.344914 26.0281513,12.9672441 C25.7420615,13.5539748 25.2901357,14.0438898 24.7283524,14.3763049 C24.1812518,14.6922393 23.7474589,14.7238324 23.4269737,14.4710842 C23.0547687,14.0819728 22.8781141,13.5456292 22.9462297,13.0114902 C22.9419808,12.314297 23.1078098,11.6265844 23.4293461,11.0079481 C23.7170589,10.4243571 24.1684173,9.93712841 24.728347,9.60571346 L24.728347,9.60571346 Z M24.728347,13.7833765 C25.1138759,13.5454969 25.4124537,13.1896768 25.5797858,12.7687026 C25.7844688,12.3131775 25.890606,11.8195489 25.8912449,11.3201513 C25.9298139,10.9238153 25.820166,10.5272446 25.5834739,10.2070155 C25.378117,9.98849517 25.0930747,9.98428228 24.728347,10.1943768 C24.3445015,10.4256769 24.0448932,10.7739119 23.8734843,11.1879845 C23.6681092,11.6513659 23.5645047,12.1534052 23.5696602,12.6602333 C23.5348361,13.0514848 23.6443016,13.4419647 23.8774312,13.7580992 C24.0827952,13.9834924 24.3664338,13.9919308 24.728347,13.7834143 L24.728347,13.7833765 Z" id="Shape"></path>
                                        <path d="M28.8252283,10.179673 C28.4553243,10.5998657 28.2703273,10.8884181 28.2702375,11.0453303 C28.2664274,11.0812621 28.2781388,11.1171112 28.3024268,11.1438637 C28.3267149,11.1706162 28.361269,11.185727 28.3974006,11.1853964 C28.5221627,11.183028 28.6433689,11.1434202 28.7454547,11.0716591 L30.0786728,10.2581363 C30.2877127,10.0946616 30.5599305,10.0355261 30.8179542,10.0975379 C30.9940904,10.1733627 31.0821135,10.37398 31.0820237,10.6993899 C31.059199,11.2761303 30.8483947,11.8295846 30.4817515,12.2753685 C30.1062419,12.7897032 29.6289444,13.2212952 29.079533,13.5433119 C28.7660422,13.7638286 28.3868675,13.8711556 28.0043078,13.8476591 C27.7257609,13.7976364 27.5863995,13.6056192 27.5862233,13.2716074 C27.6458917,12.778892 27.8741586,12.3219849 28.2323053,11.9783867 C27.8753024,11.9926034 27.6967129,11.8602622 27.6965367,11.5813631 C27.7819627,11.0871702 28.0244061,10.6336745 28.3879055,10.2881424 C28.1883208,10.2710917 28.0077003,10.1631012 27.8982109,9.99536088 C27.7775797,9.80187756 27.7179524,9.57657571 27.727082,9.34875052 C27.7338018,8.89775108 27.8652987,8.45742435 28.1069916,8.07659603 C28.3356499,7.68000196 28.6628485,7.34917609 29.0568977,7.11615948 C29.2784145,6.97348887 29.5344149,6.89343008 29.7977481,6.88447388 L30.9719637,6.00091539 L30.9719637,6.66437552 L30.2155683,7.10088955 C30.3427817,7.31582015 30.4023217,7.56407916 30.386433,7.81332993 C30.3764478,8.26058574 30.2467094,8.69698128 30.0107345,9.07705144 C29.7846785,9.48133376 29.4555757,9.81852924 29.0569031,10.0543378 C28.9758085,10.1017364 28.8985836,10.1435148 28.8252283,10.179673 Z M29.0795546,13.0157013 C29.466727,12.7930159 29.8057368,12.4955408 30.0768503,12.140592 C30.3171991,11.8687282 30.4619965,11.525691 30.4891438,11.1638341 C30.4891438,10.8615915 30.2941359,10.8231561 29.90412,11.0485277 C29.7751128,11.1227638 29.5522915,11.2600152 29.2356562,11.4602821 C29.035303,11.587172 28.8781266,11.6837072 28.764127,11.7498877 C28.6600869,11.8362983 28.5721192,11.9403982 28.504274,12.0573946 C28.3996989,12.2058818 28.3092589,12.3638358 28.2341385,12.529188 C28.1773713,12.6489308 28.1457424,12.7790357 28.1412033,12.9114754 C28.1329066,12.9867171 28.1558031,13.0620721 28.2045568,13.1199791 C28.2533105,13.1778861 28.3236626,13.2132867 28.3992177,13.2179308 C28.6419859,13.226593 28.8809185,13.1555663 29.079533,13.0156959 L29.0795546,13.0157013 Z M29.0569085,9.52674873 C29.2842813,9.39119928 29.4692196,9.1947694 29.590833,8.95964768 C29.7264041,8.71561262 29.7976192,8.44108194 29.7977697,8.16191784 C29.7977697,7.86810109 29.730633,7.67731324 29.5963597,7.58955428 C29.4623489,7.50109436 29.2820105,7.52269441 29.0569031,7.65221383 C28.8320351,7.7889387 28.6487819,7.98448568 28.5269254,8.21774583 C28.386806,8.46183163 28.3127579,8.73823708 28.3120896,9.01968137 C28.2842341,9.22754129 28.3654235,9.43508939 28.5269254,9.56887583 C28.6961711,9.66179796 28.9044544,9.64523939 29.0568923,9.52674334 L29.0569085,9.52674873 Z" id="Shape"></path>
                                        <path d="M34.255306,4.86462662 C33.9252766,4.9304311 33.6082885,5.04996898 33.3169871,5.21847166 C33.026152,5.37888611 32.7671923,5.59126411 32.5529514,5.8450726 C32.3868194,6.02546016 32.2877331,6.25746611 32.2722964,6.50221339 C32.2599482,6.60882218 32.3101885,6.71299202 32.4013036,6.76970137 C32.571718,6.81709145 32.7528754,6.80822836 32.9178499,6.74442942 L33.4841584,6.60489181 C33.691081,6.54370197 33.907551,6.5213855 34.1226054,6.53907259 C34.2714336,6.55263274 34.4068304,6.63077268 34.4930306,6.75285161 C34.5845031,6.90686023 34.627526,7.08482644 34.6165056,7.26361244 C34.6023767,7.73702266 34.435695,8.19320313 34.1412884,8.56420394 C33.8192293,9.00401068 33.4075274,9.37048702 32.9333733,9.63942917 C32.570795,9.87685321 32.1586899,10.0281504 31.7286178,10.0817341 L31.8426193,9.42722459 C32.2215926,9.40142222 32.5883629,9.28260204 32.9104738,9.08127871 C33.2187733,8.90914149 33.4914711,8.67986729 33.7139945,8.40570832 C33.8979362,8.20165773 34.0071055,7.94117397 34.0236096,7.66694996 C34.036348,7.53658102 33.9776428,7.40950512 33.8701177,7.33469418 C33.6312328,7.26976626 33.3780417,7.28099461 33.1458421,7.36681388 C32.8393866,7.43631938 32.6139341,7.48581545 32.4694844,7.51530208 C32.3367652,7.54533491 32.1988221,7.54352974 32.0669341,7.51003417 C31.9476447,7.48094396 31.8453546,7.40451112 31.7836478,7.298358 C31.7132158,7.16573436 31.6798371,7.01657694 31.6870245,6.86658347 C31.7024569,6.43094397 31.8599105,6.0122985 32.1353846,5.67446132 C32.4564815,5.2523495 32.8613599,4.9011619 33.3246113,4.64293764 C33.6580617,4.45289196 34.0160435,4.30956425 34.3885135,4.21697561 L34.255306,4.86462662 Z" id="Path"></path>
                                        <polygon id="Path" points="38.3982451 0.0961434054 36.0690308 7.82913366 35.5108803 8.15138741 37.8282486 0.425244908"></polygon>
                                        <path d="M39.3568376,4.81460034 C39.4535932,4.74176098 39.5823511,4.72743021 39.6927545,4.77721274 C39.7939251,4.84530785 39.8477016,4.96490491 39.8314995,5.0857764 C39.8277556,5.2561773 39.7799562,5.42270595 39.6927545,5.56915165 C39.6155264,5.71787122 39.49944,5.84288303 39.3568376,5.93089586 C39.2607581,6.00511734 39.1295963,6.01465592 39.0237892,5.95511638 C38.9258657,5.87683999 38.8750508,5.75372612 38.8892553,5.62916916 C38.9013359,5.29717369 39.0762485,4.99245665 39.3568376,4.81458956 L39.3568376,4.81460034 Z M40.9259739,3.90840116 C41.0230759,3.83422253 41.1531727,3.81964408 41.2642848,3.87049054 C41.3640689,3.93960211 41.4168174,4.05871819 41.400927,4.1790542 C41.3970887,4.34964297 41.3492022,4.51634035 41.2619178,4.66295786 C41.1849257,4.81184356 41.0687864,4.93691236 40.9260009,5.02470207 C40.8309525,5.09790702 40.7011606,5.10663274 40.597169,5.04680896 C40.498997,4.9689222 40.4479402,4.84590814 40.4621066,4.72139554 C40.4641828,4.55663341 40.5101696,4.39540702 40.5953249,4.25434165 C40.6727053,4.11159507 40.786869,3.99215162 40.9259739,3.90840116 L40.9259739,3.90840116 Z M42.4764164,3.01325543 C42.5734248,2.93934625 42.7032202,2.92477881 42.8141989,2.97534481 C42.9140725,3.04464149 42.9668975,3.16390197 42.9511053,3.28443149 C42.9473613,3.45483238 42.899562,3.62136103 42.8123603,3.76780673 C42.7351321,3.91652631 42.6190457,4.04153811 42.4764434,4.12955095 C42.3806934,4.2025018 42.2507604,4.21161203 42.1457674,4.15273622 C42.0463648,4.07614107 41.9944029,3.95303376 42.0088611,3.82837961 C42.0213577,3.49636283 42.1961456,3.19166569 42.4764434,3.0132716 L42.4764164,3.01325543 Z" id="Shape"></path>
                                    </g>
                                </g>
                            </g>
                        </g>
                    </g>
                </g>
            </g>
        </g>
    </g>
</svg>