<?xml version="1.0" encoding="UTF-8"?>
<svg width="191px" height="242px" viewBox="0 0 191 242" version="1.1" xmlns="http://www.w3.org/2000/svg" xmlns:xlink="http://www.w3.org/1999/xlink">
    <!-- Generator: Sketch 53.2 (72643) - https://sketchapp.com -->
    <title>illustration</title>
    <desc>Created with Sketch.</desc>
    <defs>
        <linearGradient x1="44.8395882%" y1="45.8827949%" x2="59.6606029%" y2="57.667038%" id="linearGradient-1">
            <stop stop-color="#00C8FF" stop-opacity="0.15" offset="0%"></stop>
            <stop stop-color="#00C8FF" stop-opacity="0" offset="100%"></stop>
        </linearGradient>
        <linearGradient x1="-39.088781%" y1="27.2313279%" x2="84.2991143%" y2="58.8055522%" id="linearGradient-2">
            <stop stop-color="#00C8FF" stop-opacity="0.3" offset="0%"></stop>
            <stop stop-color="#00C8FF" stop-opacity="0" offset="100%"></stop>
        </linearGradient>
        <linearGradient x1="-39.0888332%" y1="27.2313205%" x2="84.299062%" y2="58.8055358%" id="linearGradient-3">
            <stop stop-color="#00C8FF" stop-opacity="0.3" offset="0%"></stop>
            <stop stop-color="#00C8FF" stop-opacity="0" offset="100%"></stop>
        </linearGradient>
        <linearGradient x1="88.026375%" y1="49.9999726%" x2="0.743721605%" y2="49.9999726%" id="linearGradient-4">
            <stop stop-color="#00A4F9" offset="0%"></stop>
            <stop stop-color="#00C8FF" offset="100%"></stop>
        </linearGradient>
        <linearGradient x1="4.64412754e-15%" y1="50.0000031%" x2="100%" y2="50.0000031%" id="linearGradient-5">
            <stop stop-color="#00C8FF" offset="0%"></stop>
            <stop stop-color="#00A4F9" offset="100%"></stop>
        </linearGradient>
        <linearGradient x1="6.96619131e-15%" y1="49.9999929%" x2="100%" y2="49.9999929%" id="linearGradient-6">
            <stop stop-color="#00C8FF" offset="0%"></stop>
            <stop stop-color="#00A4F9" offset="100%"></stop>
        </linearGradient>
        <linearGradient x1="-1.16103188e-15%" y1="49.9999014%" x2="100%" y2="49.9999014%" id="linearGradient-7">
            <stop stop-color="#00C8FF" offset="0%"></stop>
            <stop stop-color="#00A4F9" offset="100%"></stop>
        </linearGradient>
        <linearGradient x1="49.9999917%" y1="39.1144857%" x2="49.9999917%" y2="7.598294%" id="linearGradient-8">
            <stop stop-color="#00A4F9" offset="0%"></stop>
            <stop stop-color="#00C8FF" offset="100%"></stop>
        </linearGradient>
        <linearGradient x1="49.9999967%" y1="47.2345402%" x2="49.9999967%" y2="142.91872%" id="linearGradient-9">
            <stop stop-color="#FFFFFF" offset="0%"></stop>
            <stop stop-color="#FFFFFF" stop-opacity="0" offset="99.487%"></stop>
        </linearGradient>
        <linearGradient x1="50.0000167%" y1="34.5827083%" x2="50.0000167%" y2="90.3165978%" id="linearGradient-10">
            <stop stop-color="#00C8FF" offset="0%"></stop>
            <stop stop-color="#00A4F9" offset="100%"></stop>
        </linearGradient>
        <linearGradient x1="63.3144763%" y1="54.0482764%" x2="46.7163415%" y2="50.7791755%" id="linearGradient-11">
            <stop stop-color="#0090DB" offset="0%"></stop>
            <stop stop-color="#0090DB" stop-opacity="0" offset="99.489%"></stop>
        </linearGradient>
        <linearGradient x1="49.9999812%" y1="37.8368962%" x2="49.9999812%" y2="95.7865832%" id="linearGradient-12">
            <stop stop-color="#00C8FF" offset="0%"></stop>
            <stop stop-color="#00A4F9" offset="100%"></stop>
        </linearGradient>
    </defs>
    <g id="Design" stroke="none" stroke-width="1" fill="none" fill-rule="evenodd">
        <g id="Desktop/LanadingPage-v6" transform="translate(-620.000000, -2006.000000)" fill-rule="nonzero">
            <g id="How-it-works" transform="translate(0.000000, 1543.000000)">
                <g id="Content" transform="translate(196.000000, 96.000000)">
                    <g id="Steps-and-illustration" transform="translate(0.000000, 136.000000)">
                        <g id="Step-02" transform="translate(379.000000, 231.000000)">
                            <g id="illustration" transform="translate(45.000000, 0.000000)">
                                <polygon id="Path" fill="url(#linearGradient-1)" points="65.093 211.809 150.093 162.734 201.093 192.179 116.032 241.321"></polygon>
                                <path d="M14.07973,158.18009 L14.07973,177.52373 C14.0797297,180.555386 15.6970988,183.356752 18.32259,184.87258 L75.13369,217.67249 C84.7005688,223.195932 96.4874512,223.195932 106.05433,217.67249 L162.81977,184.89895 C165.454679,183.377685 167.07785,180.566271 167.07785,177.52374 L167.07785,158.29489 L14.07973,158.18009 Z" id="Path" fill="#F7F7F7"></path>
                                <path d="M90.594,221.84935 C96.0218289,221.850284 101.354149,220.421493 106.05432,217.70677 L134.437,201.32 L162.81972,184.93323 C165.454629,183.411965 167.0778,180.600551 167.0778,177.55802 L167.0778,158.32917 L90.57874,158.27177 L90.594,221.84935 Z" id="Path" fill="url(#linearGradient-2)"></path>
                                <path d="M14.07973,133.29311 L14.07973,157.83111 C14.0797154,160.86278 15.6970864,163.664165 18.32259,165.18 L75.13369,197.97991 C84.7005688,203.503352 96.4874512,203.503352 106.05433,197.97991 L162.81977,165.20637 C165.454679,163.685105 167.07785,160.873691 167.07785,157.83116 L167.07785,133.27084 L14.07973,133.29311 Z" id="Path" fill="#F7F7F7"></path>
                                <path d="M90.661,197.26087 C96.0888289,197.261804 101.421149,195.833013 106.12132,193.11829 L134.50404,176.73152 L162.88676,160.34475 C165.521669,158.823485 167.14484,156.012071 167.14484,152.96954 L167.14484,133.74069 L90.64578,133.68329 L90.661,197.26087 Z" id="Path" fill="url(#linearGradient-2)"></path>
                                <path d="M14.07973,113.68931 L14.07973,138.22731 C14.0797297,141.258966 15.6970988,144.060332 18.32259,145.57616 L75.13369,178.37607 C84.7005688,183.899512 96.4874512,183.899512 106.05433,178.37607 L162.81977,145.60253 C165.454679,144.081265 167.07785,141.269851 167.07785,138.22732 L167.07785,113.66705 L14.07973,113.68931 Z" id="Path" fill="#F7F7F7"></path>
                                <path d="M90.661,177.70644 C96.0888289,177.707374 101.421149,176.278583 106.12132,173.56386 L134.50404,157.17709 L162.88676,140.79032 C165.521669,139.269055 167.14484,136.457641 167.14484,133.41511 L167.14484,114.18626 L90.64578,114.12886 L90.661,177.70644 Z" id="Path" fill="url(#linearGradient-2)"></path>
                                <path d="M14.07973,93.99465 L14.07973,118.53265 C14.0797297,121.564306 15.6970988,124.365672 18.32259,125.8815 L75.13369,158.68141 C84.7005688,164.204852 96.4874512,164.204852 106.05433,158.68141 L162.81977,125.90787 C165.454679,124.386605 167.07785,121.575191 167.07785,118.53266 L167.07785,93.97239 L14.07973,93.99465 Z" id="Path" fill="#F7F7F7"></path>
                                <path d="M90.661,158.02014 C96.0888289,158.021074 101.421149,156.592283 106.12132,153.87756 L134.50404,137.49079 L162.88677,121.104 C165.521679,119.582735 167.14485,116.771321 167.14485,113.72879 L167.14485,94.5 L90.64579,94.4426 L90.661,158.02014 Z" id="Path" fill="url(#linearGradient-3)"></path>
                                <path d="M14.07973,73.15371 L14.07973,98.97841 C14.0797297,102.010066 15.6970988,104.811432 18.32259,106.32726 L75.13369,139.12717 C84.7005688,144.650612 96.4874512,144.650612 106.05433,139.12717 L162.81977,106.35363 C165.454679,104.832365 167.07785,102.020951 167.07785,98.97842 L167.07785,73.15371 L14.07973,73.15371 Z" id="Path" fill="#F7F7F7"></path>
                                <path d="M90.661,138.45424 C96.0888289,138.455174 101.421149,137.026383 106.12132,134.31166 L134.50404,117.92489 L162.88676,101.53812 C165.521669,100.016855 167.14484,97.2054406 167.14484,94.16291 L167.14484,74.93406 L90.64578,74.87666 L90.661,138.45424 Z" id="Path" fill="url(#linearGradient-2)"></path>
                                <path d="M162.81974,160.35183 L106.05436,193.12539 C96.4874759,198.648826 84.7005941,198.648826 75.13371,193.12539 L18.32261,160.32546 C15.6971236,158.809642 14.0797542,156.008287 14.07975,152.97664 L14.07975,157.83113 C14.0797363,160.862795 15.6971081,163.664173 18.32261,165.18 L75.13371,197.97993 C84.7005941,203.503366 96.4874759,203.503366 106.05436,197.97993 L162.81974,165.20637 C165.454679,163.685144 167.077874,160.873727 167.07786,157.83119 L167.07786,152.97664 C167.077856,156.019219 165.454664,158.830613 162.81974,160.35183 L162.81974,160.35183 Z" id="Path" fill="url(#linearGradient-4)" opacity="0.4"></path>
                                <path d="M162.81974,140.771 L106.05436,173.5446 C96.4874759,179.068036 84.7005941,179.068036 75.13371,173.5446 L18.32261,140.74467 C15.6971236,139.228852 14.0797542,136.427497 14.07975,133.39585 L14.07975,138.25034 C14.0797542,141.281987 15.6971236,144.083342 18.32261,145.59916 L75.13371,178.39909 C84.7005941,183.922526 96.4874759,183.922526 106.05436,178.39909 L162.81974,145.62553 C165.454679,144.104304 167.077874,141.292887 167.07786,138.25035 L167.07786,133.39585 C167.077859,136.438383 165.454667,139.249782 162.81974,140.771 L162.81974,140.771 Z" id="Path" fill="url(#linearGradient-5)" opacity="0.6"></path>
                                <path d="M162.81974,121.10169 L106.05436,153.87525 C96.4874759,159.398686 84.7005941,159.398686 75.13371,153.87525 L18.32261,121.07532 C15.6971236,119.559502 14.0797542,116.758147 14.07975,113.7265 L14.07975,118.581 C14.0797542,121.612647 15.6971236,124.414002 18.32261,125.92982 L75.13371,158.72975 C84.7005941,164.253186 96.4874759,164.253186 106.05436,158.72975 L162.81974,125.95619 C165.454679,124.434964 167.077874,121.623547 167.07786,118.58101 L167.07786,113.7265 C167.07787,116.769053 165.454676,119.580466 162.81974,121.10169 L162.81974,121.10169 Z" id="Path" fill="url(#linearGradient-6)" opacity="0.8"></path>
                                <path d="M162.81974,101.50914 L106.05436,134.2827 C96.4874759,139.806136 84.7005941,139.806136 75.13371,134.2827 L18.32261,101.48277 C15.697139,99.9669608 14.0797721,97.1656292 14.07975,94.134 L14.07975,98.98849 C14.0797542,102.020137 15.6971236,104.821492 18.32261,106.33731 L75.13371,139.13724 C84.7005941,144.660676 96.4874759,144.660676 106.05436,139.13724 L162.81974,106.36368 C165.454679,104.842454 167.077874,102.031037 167.07786,98.9885 L167.07786,94.134 C167.077859,97.1765227 165.454667,99.9879215 162.81974,101.50914 L162.81974,101.50914 Z" id="Path" fill="url(#linearGradient-7)" opacity="0.9"></path>
                                <path d="M18.32455,65.80487 C15.6990582,67.3206976 14.0816884,70.1220636 14.0816884,73.15372 C14.0816884,76.1853764 15.6990582,78.9867424 18.32455,80.50257 L75.13565,113.30248 C84.7025288,118.825922 96.4894112,118.825922 106.05629,113.30248 L162.82173,80.52894 C165.456643,79.0076756 167.079817,76.1962589 167.079817,73.153725 C167.079817,70.1111911 165.456643,67.2997744 162.82173,65.77851 L106.1279,33.04632 C96.5167046,27.4972961 84.6752254,27.4972961 75.06403,33.04632 L18.32455,65.80487 Z" id="Path" fill="#FFFFFF"></path>
                                <path d="M72.05915,25.4906473 C83.5314325,18.8671219 97.6658675,18.8671219 109.13815,25.4906473 L175.89742,64.0341273 C179.154834,65.9147967 181.161484,69.3904167 181.161484,73.151755 C181.161484,76.9130933 179.154834,80.3887133 175.89742,82.2693827 L109.05382,120.861553 C97.6337334,127.454943 83.5636066,127.454943 72.14352,120.861553 L5.24613971,82.2383225 C1.99982039,80.3640563 5.7533958e-06,76.9002731 5.7533958e-06,73.151745 C5.7533958e-06,69.4032169 1.99982039,65.9394337 5.24613971,64.0651675 L72.05915,25.4906473 Z M1.00000575,73.151745 C1.00000575,76.5430078 2.80922171,79.6766641 5.74614005,81.3722973 L72.64352,119.995527 C83.7542055,126.410285 97.4431345,126.410285 108.55382,119.995527 L175.39742,81.4033573 C178.345433,79.7013207 180.161484,76.5558278 180.161484,73.151755 C180.161484,69.7476822 178.345433,66.6021893 175.39742,64.9001527 L108.63815,26.3566727 C97.4752686,19.9117801 83.7220314,19.9117801 72.5591501,26.3566727 L5.74614005,64.9311927 C2.80922171,66.6268259 1.00000575,69.7604822 1.00000575,73.151745 Z" id="Path" fill="#00C8FF" opacity="0.25"></path>
                                <path d="M13.9411496,103.045098 L14.4411504,103.911122 L5.74615029,108.931193 C2.80923171,110.626826 1.00001575,113.760482 1.00001575,117.151745 C1.00001575,120.543008 2.80923171,123.676664 5.74615005,125.372297 L72.64353,163.995527 C83.7542155,170.410285 97.4431445,170.410285 108.55383,163.995527 L175.39743,125.403357 C178.345443,123.701321 180.161494,120.555828 180.161494,117.151755 C180.161494,113.747682 178.345443,110.602189 175.39743,108.900153 L166.71262,103.885973 L167.21262,103.019947 L175.89743,108.034127 C179.154844,109.914797 181.161494,113.390417 181.161494,117.151755 C181.161494,120.913093 179.154844,124.388713 175.89743,126.269383 L109.05383,164.861553 C97.6337434,171.454943 83.5636166,171.454943 72.14353,164.861553 L5.24614971,126.238323 C1.99983039,124.364056 1.57533958e-05,120.900273 1.57533958e-05,117.151745 C1.57533958e-05,113.403217 1.99983039,109.939434 5.24614965,108.065168 L13.9411496,103.045098 Z" id="Path" fill="#00C8FF" opacity="0.25"></path>
                                <path d="M13.9342001,145.049117 L14.4341999,145.915143 L5.74614029,150.931193 C2.80922171,152.626826 1.00000575,155.760482 1.00000575,159.151745 C1.00000575,162.543008 2.80922171,165.676664 5.74614005,167.372297 L72.64352,205.995527 C83.7542055,212.410285 97.4431345,212.410285 108.55382,205.995527 L175.39742,167.403357 C178.345433,165.701321 180.161484,162.555828 180.161484,159.151755 C180.161484,155.747682 178.345433,152.602189 175.39742,150.900153 L167.00991,146.057623 L167.50991,145.191597 L175.89742,150.034127 C179.154834,151.914797 181.161484,155.390417 181.161484,159.151755 C181.161484,162.913093 179.154834,166.388713 175.89742,168.269383 L109.05382,206.861553 C97.6337334,213.454943 83.5636066,213.454943 72.14352,206.861553 L5.24613971,168.238323 C1.99982039,166.364056 5.75339581e-06,162.900273 5.75339581e-06,159.151745 C5.75339581e-06,155.403217 1.99982039,151.939434 5.24614014,150.065167 L13.9342001,145.049117 Z" id="Path" fill="#00C8FF" opacity="0.25"></path>
                                <path d="M18.32455,65.80487 C15.6990582,67.3206976 14.0816884,70.1220636 14.0816884,73.15372 C14.0816884,76.1853764 15.6990582,78.9867424 18.32455,80.50257 L75.13565,113.30248 C84.7025288,118.825922 96.4894112,118.825922 106.05629,113.30248 L162.82173,80.52894 C165.456643,79.0076756 167.079817,76.1962589 167.079817,73.153725 C167.079817,70.1111911 165.456643,67.2997744 162.82173,65.77851 L106.1279,33.04632 C96.5167046,27.4972961 84.6752254,27.4972961 75.06403,33.04632 L18.32455,65.80487 Z" id="Path" fill="url(#linearGradient-8)" opacity="0.6"></path>
                                <path d="M167.0798,73.15372 C167.0798,70.1111894 165.456629,67.2997753 162.82172,65.77851 L106.1279,33.04632 C96.5167046,27.4972961 84.6752254,27.4972961 75.06403,33.04632 L18.32455,65.80487 C15.6990588,67.320698 14.0816897,70.1220639 14.08169,73.15372 L167.0798,73.15372 Z" id="Path" fill="url(#linearGradient-9)" opacity="0.6"></path>
                                <rect id="Rectangle" fill="#00A4F9" x="34.71471" y="70.38705" width="5.50224" height="4.7948"></rect>
                                <rect id="Rectangle" fill="#00A4F9" x="140.9457" y="70.38705" width="5.50224" height="4.7948"></rect>
                                <path d="M37.80307,64.78893 C35.8853473,65.8961258 34.703981,67.9423105 34.703981,70.156705 C34.703981,72.3710995 35.8853473,74.4172842 37.80307,75.52448 L79.29927,99.48233 C86.287149,103.516784 94.896571,103.516784 101.88445,99.48233 L143.3473,75.54374 C145.271903,74.4325713 146.457508,72.3790448 146.457508,70.156705 C146.457508,67.9343652 145.271903,65.8808387 143.3473,64.76967 L101.93676,40.86129 C94.9165084,36.8081458 86.2672016,36.8081458 79.24695,40.86129 L37.80307,64.78893 Z" id="Path" fill="#F4F4F4"></path>
                                <g id="Group" opacity="0.08" transform="translate(73.000000, 60.000000)" fill="#00A4F9">
                                    <path d="M1.26361,8.50276 C0.670712535,8.84506827 0.305472403,9.4776816 0.305472403,10.1623 C0.305472403,10.8469184 0.670712535,11.4795317 1.26361,11.82184 L14.09288,19.22884 C16.253304,20.4761614 18.915056,20.4761614 21.07548,19.22884 L33.89448,11.82784 C34.4895078,11.4843032 34.8560606,10.8494176 34.8560606,10.16234 C34.8560606,9.47526236 34.4895078,8.84037681 33.89448,8.49684 L21.09165,1.10512 C18.9212142,-0.147969812 16.2471358,-0.147969812 14.0767,1.10512 L1.26361,8.50276 Z" id="Path"></path>
                                </g>
                                <g id="Group" opacity="0.08" transform="translate(49.000000, 46.000000)" fill="#00A4F9">
                                    <path d="M3.19989,20.25537 C1.80528962,21.0605431 0.946180391,22.5485641 0.946180391,24.15891 C0.946180391,25.7692559 1.80528962,27.2572769 3.19989,28.06245 L33.37666,45.485 C38.4583685,48.4189258 44.7192915,48.4189258 49.801,45.485 L79.95351,28.07644 C81.3531147,27.2683788 82.215307,25.7750189 82.215307,24.158895 C82.215307,22.5427711 81.3531147,21.0494112 79.95351,20.24135 L49.839,2.85478 C44.7337517,-0.0927340798 38.4438283,-0.0927340798 33.33858,2.85478 L3.19989,20.25537 Z" id="Path"></path>
                                </g>
                                <g id="Group" opacity="0.08" transform="translate(61.000000, 53.000000)" fill="#00A4F9">
                                    <path d="M1.95211,14.35058 C0.948183771,14.9301839 0.32973723,16.0013525 0.32973723,17.16058 C0.32973723,18.3198075 0.948183771,19.3909761 1.95211,19.97058 L23.675,32.51226 C27.3330922,34.6242605 31.8400478,34.6242605 35.49814,32.51226 L57.20357,19.98063 C58.2110825,19.3989428 58.8317359,18.32394 58.8317359,17.160565 C58.8317359,15.99719 58.2110825,14.9221872 57.20357,14.3405 L35.52557,1.82468 C31.8505319,-0.297104262 27.3226981,-0.297104262 23.64766,1.82468 L1.95211,14.35058 Z" id="Path"></path>
                                </g>
                                <path d="M143.34733,75.54373 L101.88444,99.48233 C94.8965667,103.516752 86.2871733,103.516752 79.2993,99.48233 L37.80308,75.52444 C36.6652751,74.8652112 35.7669713,73.8607656 35.23838,72.6567 C33.9499236,75.5489646 35.0576463,78.9471296 37.80308,80.52444 L79.2993,104.48233 C86.2871733,108.516752 94.8965667,108.516752 101.88444,104.48233 L143.34733,80.54373 C146.098994,78.9623434 147.211834,75.5581066 145.92558,72.65673 C145.395529,73.8690676 144.492256,74.8805097 143.34733,75.54373 L143.34733,75.54373 Z" id="Path" fill="#00A4F9" opacity="0.7"></path>
                                <g id="Group" transform="translate(55.000000, 0.000000)">
                                    <polygon id="Path" fill="#408FFF" opacity="0.3" points="36.036 20 38.036 18 28.036 0 22.036 6"></polygon>
                                    <polygon id="Path" fill="#408FFF" opacity="0.3" points="50.036 6 44.036 0 34.036 18 36.036 20"></polygon>
                                    <path d="M10.03534,15.99813 C10.03488,20.95525 12.25055,24.21254 16.03272,27.99469 L24.02921,35.99118 L22.47405,37.54634 C19.70522,40.123479 18.0735588,43.6949785 17.9380131,47.4751494 C17.8024674,51.2553203 19.1741406,54.9345105 21.75128,57.70334 C21.8445267,57.80352 21.9391933,57.9023433 22.03528,57.99981 L24.03528,59.99981 L44.03523,39.99986 C47.93876,36.09633 48.85251,32.82674 44.94899,28.92322 L36.03526,19.99993 C36.03526,19.99993 34.82842,18.79144 16.0327,0.007 C14.3351481,1.73730291 12.9787464,3.77190719 12.03445,6.00438 C10.6913564,9.16377238 10.0109501,12.5651917 10.03534,15.99813 L10.03534,15.99813 Z" id="Path" fill="#00AEFF" opacity="0.5"></path>
                                    <path d="M61.893,15.99813 C61.89346,20.95741 59.67683,24.21613 55.893,27.99991 L47.893,35.99991 L49.44883,37.55574 C52.2187856,40.3256955 53.7749304,44.0825613 53.7749304,47.99987 C53.7749304,51.9171787 52.2187856,55.6740445 49.44883,58.444 L49.44883,58.444 L48.03513,59.99982 L28.03528,39.99986 C27.18676,39.15134 20.08217,34.8976 28.03528,27.99986 L38.03528,17.99986 L56.03518,0 C57.6930767,1.73481882 59.0026938,3.77164352 59.893,6 C61.2366885,9.16077559 61.9173978,12.563686 61.893,15.99813 Z" id="Path" fill="#00AEFF" opacity="0.5"></path>
                                    <path d="M0.03538,13.99813 C0.147924409,19.2660086 2.29866618,24.2850405 6.03538,27.9999 L14.03538,35.9999 L12.47955,37.55573 C9.70959443,40.3256855 8.15344959,44.0825513 8.15344959,47.99986 C8.15344959,51.9171687 9.70959443,55.6740345 12.47955,58.44399 L12.47955,58.44399 L16.03538,61.9998 L34.9642,43.07091 C38.8694125,39.1656723 38.8694125,32.8340577 34.9642,28.92882 L34.9642,28.92882 L6.03536,0 C2.19723054,3.64362158 0.0273779269,8.70595163 0.03538,13.99813 Z" id="Path" fill="url(#linearGradient-10)"></path>
                                    <path d="M24.03529,53.99982 C18.03529,49.99982 16.03529,43.99982 22.03529,37.99987 L24.03529,35.99987 L16.03529,27.99987 C9.55345233,22.6010102 7.86871801,13.3349336 12.03533,6 L6.03533,-8.8817842e-16 C2.19709912,3.64354437 0.0272203239,8.70591139 0.03533,13.99811 C0.147929569,19.2659825 2.29866247,24.2850009 6.03533,27.9999 L14.03533,35.9999 L12.47968,37.55567 C6.71158634,43.3236059 6.71142517,52.6753953 12.47932,58.44353 L12.47968,58.44389 L16.03533,61.9998 L24.03529,53.99982 Z" id="Path" fill="#0070F7" opacity="0.15"></path>
                                    <path d="M34.96394,43.07081 C38.8690925,39.1655826 38.8690925,32.8340374 34.96394,28.92881 L21.228,15.19257 C24.24429,21.07135 16.03534,28.23941 16.03534,35.99988 C16.03534,43.76035 24.24434,50.92829 21.22794,56.80707 L34.96394,43.07081 Z" id="Path" fill="url(#linearGradient-11)"></path>
                                    <path d="M72.03513,13.99813 C71.9334097,19.2627246 69.7925369,24.2823852 66.06341,27.9999 L58.06341,35.9999 L59.61924,37.55573 C62.3891956,40.3256855 63.9453404,44.0825513 63.9453404,47.99986 C63.9453404,51.9171687 62.3891956,55.6740345 59.61924,58.44399 L59.61924,58.44399 L56.06341,61.9998 L37.13457,43.07091 C33.2293575,39.1656723 33.2293575,32.8340577 37.13457,28.92882 L37.13457,28.92882 L66.06341,0 C69.8996468,3.6425558 72.0606563,8.70811359 72.03513,13.99813 Z" id="Path" fill="url(#linearGradient-12)"></path>
                                    <path d="M48.06347,53.99982 C54.06347,49.99982 56.06347,43.99982 50.06347,37.99987 L48.06347,35.99987 L56.06347,27.99987 C62.5453477,22.601015 64.2301012,13.3349046 60.06347,5.99995 L66.06347,-5e-05 C69.8997913,3.64243705 72.0608118,8.70803014 72.03517,13.99806 C71.9334018,19.2626462 69.7925449,24.2822936 66.06347,27.99985 L58.06347,35.99985 L59.61912,37.55562 C65.3872137,43.3235559 65.3873748,52.6753453 59.61948,58.44348 L59.61912,58.44384 L56.06347,61.99975 L48.06347,53.99982 Z" id="Path" fill="#0070F7" opacity="0.15"></path>
                                </g>
                                <g id="Group" transform="translate(29.000000, 107.000000)" fill="#FFFFFF" opacity="0.42">
                                    <polygon id="Path" points="7.753 29.565 0.461 25.364 0.461 20.506 7.753 24.712"></polygon>
                                    <polygon id="Path" points="24.191 39.054 16.898 34.853 16.898 29.995 24.191 34.201"></polygon>
                                    <polygon id="Path" points="41.066 48.804 33.773 44.603 33.773 39.745 41.066 43.951"></polygon>
                                    <polygon id="Path" points="7.753 9.979 0.461 5.778 0.461 0.92 7.753 5.126"></polygon>
                                    <polygon id="Path" points="24.191 19.468 16.898 15.267 16.898 10.408 24.191 14.615"></polygon>
                                    <polygon id="Path" points="41.066 29.218 33.773 25.017 33.773 20.158 41.066 24.365"></polygon>
                                    <polygon id="Path" points="7.753 49.222 0.461 45.02 0.461 40.162 7.753 44.369"></polygon>
                                    <polygon id="Path" points="24.191 58.711 16.898 54.509 16.898 49.651 24.191 53.858"></polygon>
                                    <polygon id="Path" points="41.066 68.461 33.773 64.259 33.773 59.401 41.066 63.608"></polygon>
                                    <polygon id="Path" points="7.753 68.828 0.461 64.627 0.461 59.769 7.753 63.975"></polygon>
                                    <polygon id="Path" points="24.191 78.317 16.898 74.116 16.898 69.258 24.191 73.464"></polygon>
                                    <polygon id="Path" points="41.066 88.067 33.773 83.866 33.773 79.008 41.066 83.214"></polygon>
                                </g>
                                <polygon id="Path" fill="#FFFFFF" opacity="0.42" points="144.463 136.565 151.755 132.364 151.755 127.506 144.463 131.712"></polygon>
                                <polygon id="Path" fill="#FFFFFF" opacity="0.42" points="128.025 146.054 135.317 141.853 135.317 136.995 128.025 141.201"></polygon>
                                <polygon id="Path" fill="#FFFFFF" opacity="0.42" points="111.15 155.804 118.442 151.603 118.442 146.745 111.15 150.951"></polygon>
                                <polygon id="Path" fill="#FFFFFF" opacity="0.42" points="144.463 116.979 151.755 112.778 151.755 107.92 144.463 112.126"></polygon>
                                <polygon id="Path" fill="#FFFFFF" opacity="0.42" points="128.025 126.468 135.317 122.267 135.317 117.408 128.025 121.615"></polygon>
                                <polygon id="Path" fill="#FFFFFF" opacity="0.42" points="111.15 136.218 118.442 132.017 118.442 127.158 111.15 131.365"></polygon>
                                <polygon id="Path" fill="#FFFFFF" opacity="0.42" points="144.463 156.222 151.755 152.02 151.755 147.162 144.463 151.369"></polygon>
                                <polygon id="Path" fill="#FFFFFF" opacity="0.42" points="128.025 165.711 135.317 161.509 135.317 156.651 128.025 160.858"></polygon>
                                <polygon id="Path" fill="#FFFFFF" opacity="0.42" points="111.15 175.461 118.442 171.259 118.442 166.401 111.15 170.608"></polygon>
                                <polygon id="Path" fill="#FFFFFF" opacity="0.42" points="144.463 175.828 151.755 171.627 151.755 166.769 144.463 170.975"></polygon>
                                <polygon id="Path" fill="#FFFFFF" opacity="0.42" points="128.025 185.317 135.317 181.116 135.317 176.258 128.025 180.464"></polygon>
                                <polygon id="Path" fill="#FFFFFF" opacity="0.42" points="111.15 195.067 118.442 190.866 118.442 186.008 111.15 190.214"></polygon>
                            </g>
                        </g>
                    </g>
                </g>
            </g>
        </g>
    </g>
</svg>