<?xml version="1.0" encoding="UTF-8"?>
<svg width="203px" height="148px" viewBox="0 0 203 148" version="1.1" xmlns="http://www.w3.org/2000/svg" xmlns:xlink="http://www.w3.org/1999/xlink">
    <!-- Generator: sketchtool 53.2 (72643) - https://sketchapp.com -->
    <title>81087A8D-1885-403A-95B4-38D8004F4D5A</title>
    <desc>Created with sketchtool.</desc>
    <defs>
        <linearGradient x1="86.0759494%" y1="61.3962862%" x2="12.0253165%" y2="35.2951146%" id="linearGradient-1">
            <stop stop-color="#00A4F9" offset="0%"></stop>
            <stop stop-color="#00B8FC" offset="49.1910089%"></stop>
            <stop stop-color="#00C8FF" offset="100%"></stop>
        </linearGradient>
        <linearGradient x1="86.0759494%" y1="61.5596717%" x2="12.0253165%" y2="35.0842946%" id="linearGradient-2">
            <stop stop-color="#00A4F9" offset="0%"></stop>
            <stop stop-color="#00B8FC" offset="49.1910089%"></stop>
            <stop stop-color="#00C8FF" offset="100%"></stop>
        </linearGradient>
    </defs>
    <g id="Design" stroke="none" stroke-width="1" fill="none" fill-rule="evenodd">
        <g id="Desktop/LanadingPage-v6" transform="translate(-830.000000, -1982.000000)">
            <g id="How-it-works" transform="translate(0.000000, 1543.000000)">
                <g id="Content" transform="translate(196.000000, 96.000000)">
                    <g id="Steps-and-illustration" transform="translate(0.000000, 136.000000)">
                        <g id="Arrows" transform="translate(254.000000, 207.000000)">
                            <g id="Arrows-Right" transform="translate(380.000000, 0.000000)">
                                <g id="Data-Arrow" transform="translate(61.000000, 66.000000)">
                                    <polygon id="Fill-1-Copy-2" fill="url(#linearGradient-1)" opacity="0.401785714" transform="translate(71.500000, 41.000000) scale(1, -1) translate(-71.500000, -41.000000) " points="25.5768354 0 1 14.1717391 124.212582 74.6298043 115.003854 76.1762174 142 82 131.900652 66.4333696 129.205589 71.7705"></polygon>
                                    <path d="M4.32110345,55.7487034 C5.41503448,55.117531 6.2297931,54.3391862 6.76537931,53.4151862 C7.30248276,52.4911862 7.57103448,51.4078759 7.57103448,50.1637379 C7.57103448,48.9226345 7.30248276,48.1503586 6.76537931,47.8514621 C6.2297931,47.5540828 5.41503448,47.7179448 4.32110345,48.3491172 L2.90096552,49.1684276 L2.90096552,56.5680138 L4.32110345,55.7487034 Z M3.96127575e-13,48.165531 L4.52744828,45.5528414 C5.75641379,44.8427724 6.81696552,44.4847034 7.70303448,44.4786345 C8.59062069,44.4710483 9.27337931,44.8124276 9.74524138,45.4982207 C10.2186207,46.1824966 10.4553103,47.1838759 10.4553103,48.4993241 C10.4553103,49.8269103 10.2216552,51.1029103 9.75434483,52.3318759 C9.28551724,53.5623586 8.60882759,54.6866345 7.7182069,55.7062207 C6.83062069,56.7258069 5.76703448,57.5921517 4.52744828,58.3082897 L3.96127575e-13,60.9209793 L3.96127575e-13,48.165531 Z M15.3596414,46.914869 L18.4184,45.1488 L16.8890207,41.9443862 L15.3596414,46.914869 Z M20.3422621,49.1770759 L19.348469,47.1090759 L14.4295724,49.9493517 L13.4357793,53.1643862 L10.5196414,54.8485241 L15.7070897,39.0995586 L18.0072276,37.7704552 L23.2128828,47.5202483 L20.3422621,49.1770759 Z M25.5907034,46.1474483 L25.5907034,36.0866207 L22.2649103,38.0089655 L22.2649103,35.3113103 L31.8523586,29.7764138 L31.8523586,32.4725517 L28.5250483,34.3933793 L28.5250483,44.4542069 L25.5907034,46.1474483 Z M35.7460552,35.1444138 L38.806331,33.3783448 L37.2754345,30.173931 L35.7460552,35.1444138 Z M40.7286759,37.4066207 L39.7364,35.3386207 L34.8159862,38.1788966 L33.8221931,41.393931 L30.9075724,43.078069 L36.0935034,27.3291034 L38.3951586,26 L43.5992966,35.7497931 L40.7286759,37.4066207 Z" id="Combined-Shape" fill="#00A4F9" fill-rule="nonzero"></path>
                                </g>
                                <g id="Arrow+LQL">
                                    <g id="LQL-Arrow">
                                        <polygon id="Fill-1-Copy" fill="url(#linearGradient-2)" opacity="0.401785714" transform="translate(70.000000, 56.000000) scale(-1, 1) translate(-70.000000, -56.000000) " points="24.4025316 15 0 29.1717391 122.338734 89.6298043 113.195316 91.1762174 140 97 129.972278 81.4333696 127.296329 86.7705"></polygon>
                                        <path d="M82,13.8455158 L84.9198421,12.1619895 L84.9198421,22.2814632 L89.6773684,19.5340947 L89.6773684,22.2463579 L82,26.6787789 L82,13.8455158 Z M97.7358579,14.1634474 C98.2120684,13.2018684 98.4501737,12.0662895 98.4501737,10.7567105 C98.4501737,9.44560526 98.2090158,8.59086842 97.7282263,8.18792105 C97.2474368,7.78497368 96.5880684,7.82771053 95.7531737,8.3085 C94.9060684,8.79692105 94.2467,9.51428947 93.7689632,10.4636579 C93.2942789,11.4130263 93.0561737,12.5470789 93.0561737,13.8703947 C93.0561737,15.1921842 93.2942789,16.0560789 93.7689632,16.4620789 C94.2467,16.8665526 94.9060684,16.8238158 95.7531737,16.3353947 C96.5987526,15.8485 97.2596474,15.1235 97.7358579,14.1634474 Z M99.9887,16.8024474 L101.225016,18.4005 L98.7340684,21.1295526 L96.9574368,18.8248158 C96.7361211,18.5409211 96.3331737,18.5683947 95.7531737,18.9026579 C94.6099632,19.5620263 93.6193842,19.8627105 92.7783842,19.8092895 C91.9373842,19.7543421 91.2902263,19.3636053 90.8353842,18.6370789 C90.3805421,17.9120789 90.1531211,16.8818158 90.1531211,15.5447632 C90.1531211,14.2107632 90.3805421,12.9195 90.8353842,11.6663947 C91.2902263,10.4163421 91.9373842,9.28076316 92.7783842,8.26118421 C93.6193842,7.24160526 94.6099632,6.40213158 95.7531737,5.74123684 C96.8948579,5.08339474 97.8869632,4.77813158 98.7264368,4.82697368 C99.5674368,4.87581579 100.213068,5.26502632 100.661805,5.99307895 C101.110542,6.72265789 101.334911,7.75444737 101.334911,9.08997368 C101.334911,10.4117632 101.109016,11.7030263 100.654174,12.9591842 C100.199332,14.2168684 99.5475947,15.3570263 98.7020158,16.3811842 C99.2301211,16.2316053 99.6605421,16.3720263 99.9887,16.8024474 Z M103.064532,14.5167895 L103.064532,1.68505263 L105.982847,-1.0125234e-13 L105.982847,10.1194737 L110.7419,7.37210526 L110.7419,10.0843684 L103.064532,14.5167895 Z" id="Combined-Shape" fill="#00A4F9" fill-rule="nonzero"></path>
                                    </g>
                                </g>
                            </g>
                        </g>
                    </g>
                </g>
            </g>
        </g>
    </g>
</svg>