<svg xmlns="http://www.w3.org/2000/svg" xmlns:xlink="http://www.w3.org/1999/xlink" width="136.00066" height="31" viewBox="0 0 136.00066 31">
  <defs>
    <style>
      .cls-1 {
        isolation: isolate;
      }

      .cls-2 {
        fill: #334666;
      }

      .cls-3 {
        fill: #408fff;
        opacity: 0.3;
      }

      .cls-4 {
        fill: #00aeff;
        opacity: 0.5;
      }

      .cls-5 {
        fill: url(#linear-gradient);
      }

      .cls-6 {
        fill: #0070f7;
        opacity: 0.15;
        mix-blend-mode: multiply;
      }

      .cls-7 {
        fill: url(#linear-gradient-2);
      }

      .cls-8 {
        fill: url(#linear-gradient-3);
      }
    </style>
    <linearGradient id="linear-gradient" x1="9.4648" y1="10.72064" x2="9.4648" y2="27.99815" gradientUnits="userSpaceOnUse">
      <stop offset="0" stop-color="#00c8ff"/>
      <stop offset="1" stop-color="#00a4f9"/>
    </linearGradient>
    <linearGradient id="linear-gradient-2" x1="18.7396" y1="18.84231" x2="12.16423" y2="18.1621" gradientUnits="userSpaceOnUse">
      <stop offset="0" stop-color="#0090db"/>
      <stop offset="0.99489" stop-color="#0090db" stop-opacity="0"/>
    </linearGradient>
    <linearGradient id="linear-gradient-3" x1="-489.61411" y1="11.72944" x2="-489.61411" y2="29.69385" gradientTransform="matrix(-1, 0, 0, 1, -463.07041, 0)" xlink:href="#linear-gradient"/>
  </defs>
  <title>Artboard 8</title>
  <g class="cls-1">
    <g id="Logo-v9">
      <path class="cls-2" d="M44.30066,24V7h2.7V24ZM59.18172,13.65113a5.724,5.724,0,0,1,1.73354,4.31178,5.79965,5.79965,0,0,1-1.75789,4.3609,5.936,5.936,0,0,1-10.15671-4.3609,5.70617,5.70617,0,0,1,1.70919-4.31178,6.25914,6.25914,0,0,1,8.47187,0Zm-1.78224,6.89925a3.52626,3.52626,0,0,0,1.001-2.58747,3.35577,3.35577,0,0,0-3.46657-3.47469,3.39457,3.39457,0,0,0-2.44177.9614,3.357,3.357,0,0,0-1.001,2.51328,3.52827,3.52827,0,0,0,1.001,2.58747,3.54739,3.54739,0,0,0,4.90738,0ZM79.70066,24h-2.7l.01079-12h2.42041v2.59614c.54052-1.87207,1.52734-2.59229,3.00781-2.59229a3.52509,3.52509,0,0,1,1.9502.43164l-.38921,2.16064a3.356,3.356,0,0,0-1.6313-.26416c-1.97412,0-2.6687,1.94434-2.6687,5.08887Zm17.3,0H94.55544V22.108A4.558,4.558,0,0,1,90.74834,24a5.66224,5.66224,0,0,1-4.07418-1.67109,5.83126,5.83126,0,0,1-1.67351-4.32366,5.77512,5.77512,0,0,1,1.67351-4.29867,5.66129,5.66129,0,0,1,4.07418-1.67009,4.53923,4.53923,0,0,1,3.8071,1.867V12.28235h2.44521Zm-3.6394-8.54937a3.48792,3.48792,0,0,0-2.42536-.95748,3.395,3.395,0,0,0-2.47323.98247,3.3517,3.3517,0,0,0-.99473,2.50564,3.50454,3.50454,0,0,0,.99473,2.55462,3.50619,3.50619,0,0,0,5.96538-2.55462A3.2182,3.2182,0,0,0,93.36126,15.45063ZM101.60066,24H99.019V12h2.42041v1.92378a3.77336,3.77336,0,0,1,3.36035-1.91992c2.65527,0,4.18262,1.752,4.18262,4.9209V24h-2.58169V17.21187c0-1.752-.73179-2.78418-2.14146-2.78418-1.59814,0-2.65854.96094-2.65854,3.001Zm11.99424.83782a3.63984,3.63984,0,0,0,3.17555,1.866c2.5212,0,3.78205-1.4591,3.78205-4.40163v-.5743a4.35823,4.35823,0,0,1-3.83041,1.938,5.61913,5.61913,0,0,1-4.04853-1.60316,5.54784,5.54784,0,0,1-1.67291-4.18651,5.64074,5.64074,0,0,1,5.72143-5.8617,4.46069,4.46069,0,0,1,3.83041,1.89031V12.25394h2.44816v9.52162c0,4.8085-2.085,7.22444-6.23021,7.22444a5.85217,5.85217,0,0,1-5.23634-3.13332l1.01805-.5266Zm3.41785-10.43076a3.36663,3.36663,0,0,0-2.44816.98117,3.309,3.309,0,0,0-.99387,2.46363,3.33593,3.33593,0,0,0,3.442,3.4448,3.581,3.581,0,0,0,2.42448-.9325,3.26606,3.26606,0,0,0,1.06641-2.5123A3.31231,3.31231,0,0,0,117.01275,14.40706ZM127.36779,19a3.19756,3.19756,0,0,0,3.31852,2.8578,3.29413,3.29413,0,0,0,2.94722-1.595l1.94906.88032a5.76151,5.76151,0,0,1-8.98054,1.23767,5.70688,5.70688,0,0,1-1.60139-4.21274,5.5587,5.5587,0,0,1,1.60139-4.16528,5.3699,5.3699,0,0,1,3.968-1.595,5.14249,5.14249,0,0,1,3.89861,1.595,5.69731,5.69731,0,0,1,1.532,4.16528A6.80487,6.80487,0,0,1,135.977,19Zm6.28888-1.71229a2.95554,2.95554,0,0,0-3.08658-2.73779,3.05116,3.05116,0,0,0-3.20231,2.73779ZM65.5949,24.83427a3.63933,3.63933,0,0,0,3.17555,1.86756c2.5212,0,3.78205-1.46034,3.78205-4.40539v-.57479a4.35713,4.35713,0,0,1-3.83041,1.93966,5.61657,5.61657,0,0,1-4.04853-1.60453,5.555,5.555,0,0,1-1.67291-4.19009A5.64322,5.64322,0,0,1,68.72209,12a4.45947,4.45947,0,0,1,3.83041,1.89192V12.23966h2.44816V21.7694c0,4.81261-2.085,7.2306-6.23021,7.2306a5.85147,5.85147,0,0,1-5.23634-3.136l1.01805-.527Zm3.41785-10.43966a3.36513,3.36513,0,0,0-2.44816.982,3.31329,3.31329,0,0,0-.99387,2.46573,3.33734,3.33734,0,0,0,3.442,3.44774,3.57923,3.57923,0,0,0,2.42448-.9333,3.27017,3.27017,0,0,0,1.06641-2.51444A3.31366,3.31366,0,0,0,69.01275,14.39461Z"/>
      <polygon class="cls-3" points="18.001 10 19.001 9 14.001 0 11.001 3 18.001 10"/>
      <polygon class="cls-3" points="25.001 3 22.001 0 17.001 9 18.001 10 25.001 3"/>
      <path class="cls-4" d="M5.00066,7.99909c-.00023,2.47857,1.10761,4.10722,2.9987,5.9983l3.99826,3.99826-.77758.77758A7.13118,7.13118,0,0,0,11.00066,29l1,1,10-10c1.95177-1.95177,2.40865-3.58657.45688-5.53834L18.00066,10S17.39724,9.39575,7.99935.00348a9.64979,9.64979,0,0,0-1.99913,2.9987A12.54454,12.54454,0,0,0,5.00066,7.99909Z"/>
      <path class="cls-4" d="M30.92959,7.99909c.00023,2.47965-1.10809,4.109-3,6.00091l-4,4,.77792.77792a7.38514,7.38514,0,0,1,0,10.44417L24.00066,30l-10-10c-.42426-.42426-3.97657-2.55114,0-6l5-5,9-9a9.37856,9.37856,0,0,1,1.92893,3A12.55,12.55,0,0,1,30.92959,7.99909Z"/>
      <path class="cls-5" d="M.00066,6.99909a10.17843,10.17843,0,0,0,3,7.00091l4,4-.77792.77792a7.38514,7.38514,0,0,0,0,10.44417L8.00066,31l9.46447-9.46447a5,5,0,0,0,0-7.07107L3.00066,0A9.63058,9.63058,0,0,0,.00066,6.99909Z"/>
      <path class="cls-6" d="M12.00066,27c-3-2-4-5-1-8l1-1-4-4a8.71423,8.71423,0,0,1-2-11l-3-3a9.63008,9.63008,0,0,0-3,6.99908,10.17872,10.17872,0,0,0,3,7.00092l4,4-.77783.77789a7.385,7.385,0,0,0,0,10.44415L8.00066,31Z"/>
      <path class="cls-7" d="M17.465,21.53548a5,5,0,0,0,0-7.071L10.597,7.59631C12.10515,10.53571,8.00066,14.11975,8.00066,18s4.10449,7.46423,2.59631,10.40363Z"/>
      <path class="cls-8" d="M36.00066,6.99909A10.16258,10.16258,0,0,1,33.01479,14l-4,4,.77792.77792a7.38514,7.38514,0,0,1,0,10.44417L28.01479,31l-9.46447-9.46447a5,5,0,0,1,0-7.07107L33.01479,0A9.58779,9.58779,0,0,1,36.00066,6.99909Z"/>
      <path class="cls-6" d="M24.01479,27c3-2,4-5,1-8l-1-1,4-4a8.71423,8.71423,0,0,0,2-11l3-3a9.58729,9.58729,0,0,1,2.98586,6.99908A10.16286,10.16286,0,0,1,33.01479,14l-4,4,.77783.77789a7.385,7.385,0,0,1,0,10.44415L28.01479,31Z"/>
    </g>
  </g>
</svg>
