<?xml version="1.0" encoding="UTF-8"?>
<svg width="137px" height="31px" viewBox="0 0 137 31" version="1.1" xmlns="http://www.w3.org/2000/svg" xmlns:xlink="http://www.w3.org/1999/xlink">
    <!-- Generator: Sketch 53.2 (72643) - https://sketchapp.com -->
    <title>Logotype-White</title>
    <desc>Created with Sketch.</desc>
    <g id="Logotype-White" stroke="none" stroke-width="1" fill="none" fill-rule="evenodd">
        <g id="Logrange-Logo-S" fill="#FFFFFF" fill-rule="nonzero">
            <path d="M44.30066,24 L44.30066,7 L47.00066,7 L47.00066,24 L44.30066,24 Z M59.18172,13.65113 C60.3432615,14.7786073 60.9730995,16.3451837 60.91526,17.96291 C60.9712425,19.599531 60.332723,21.1835435 59.15737,22.32381 C57.4412837,24.0616623 54.835905,24.5710287 52.5916719,23.6074415 C50.3474387,22.6438542 48.9224652,20.4040099 49.00066,17.96291 C48.9342184,16.3484823 49.5553414,14.7815729 50.70985,13.65113 C53.1047389,11.4496135 56.7868311,11.4496135 59.18172,13.65113 L59.18172,13.65113 Z M57.39948,20.55038 C58.0726725,19.8608927 58.4343713,18.9259428 58.40048,17.96291 C58.4339854,17.0329202 58.0798062,16.1307756 57.4225477,15.4719775 C56.7652892,14.8131794 55.8639757,14.4568905 54.93391,14.48822 C54.0240172,14.4684011 53.1442746,14.8147828 52.49214,15.44962 C51.8207405,16.1099041 51.4575369,17.0218244 51.49114,17.9629 C51.4574851,18.925893 51.8191492,19.8607531 52.49214,20.55037 C53.8640664,21.8643438 56.0275936,21.8643438 57.39952,20.55037 L57.39948,20.55038 Z M79.70066,24 L77.00066,24 L77.01145,12 L79.43186,12 L79.43186,14.59614 C79.97238,12.72407 80.9592,12.00385 82.43967,12.00385 C83.1177562,11.9566977 83.7950145,12.106596 84.38987,12.43549 L84.00066,14.59613 C83.4874119,14.3734805 82.9266448,14.2826742 82.36936,14.33197 C80.39524,14.33197 79.70066,16.27631 79.70066,19.42084 L79.70066,24 Z M97.00066,24 L94.55544,24 L94.55544,22.108 C93.6762425,23.3281112 92.2517902,24.0360159 90.74834,24 C89.220433,24.0155068 87.7511144,23.4128424 86.67416,22.32891 C85.5427423,21.1809181 84.9369574,19.6158197 85.00065,18.00525 C84.9371567,16.4021059 85.5434288,14.844802 86.67416,13.70658 C87.7512195,12.6229226 89.2205578,12.0206107 90.74834,12.03649 C92.2479281,11.9914395 93.6729156,12.6902527 94.55544,13.90349 L94.55544,12.28235 L97.00065,12.28235 L97.00066,24 Z M93.36126,15.45063 C92.7069961,14.8299143 91.837736,14.4867492 90.9359,14.49315 C90.0121406,14.470416 89.1190242,14.825199 88.46267,15.47562 C87.7950097,16.1347935 87.4342032,17.0436344 87.46794,17.98126 C87.4388825,18.9325436 87.7979698,19.854735 88.46267,20.53588 C89.4769737,21.5343216 90.9942137,21.8205392 92.3025618,21.2602509 C93.6109098,20.6999627 94.4507449,19.4043491 94.42805,17.98126 C94.4682959,17.0207183 94.0769984,16.0924857 93.36126,15.45063 Z M101.60066,24 L99.019,24 L99.019,12 L101.43941,12 L101.43941,13.92378 C102.121057,12.7143736 103.411746,11.9769443 104.79976,12.00386 C107.45503,12.00386 108.98238,13.75586 108.98238,16.92476 L108.98238,24 L106.40069,24 L106.40069,17.21187 C106.40069,15.45987 105.6689,14.42769 104.25923,14.42769 C102.66109,14.42769 101.60069,15.38863 101.60069,17.42869 L101.60066,24 Z M113.5949,24.83782 C114.237378,25.9890072 115.452115,26.7028046 116.77045,26.70382 C119.29165,26.70382 120.5525,25.24472 120.5525,22.30219 L120.5525,21.72789 C119.704434,23.0015115 118.250572,23.7370947 116.72209,23.66589 C115.21196,23.6973584 113.75275,23.119532 112.67356,22.06273 C111.548482,20.9669261 110.94057,19.4456078 111.00065,17.87622 C110.939787,16.3281858 111.518299,14.8232596 112.600424,13.7146037 C113.68255,12.6059478 115.173026,11.9911625 116.72208,12.01452 C118.237185,11.9526095 119.679978,12.6646291 120.55249,13.90483 L120.55249,12.25394 L123.00065,12.25394 L123.00065,21.77556 C123.00065,26.58406 120.91565,29 116.77044,29 C114.575496,29.020238 112.553795,27.810493 111.5341,25.86668 L112.55215,25.34008 L113.5949,24.83782 Z M117.01275,14.40706 C116.097217,14.3875493 115.21324,14.7418286 114.56459,15.38823 C113.903728,16.0345695 113.543353,16.9278773 113.57072,17.85186 C113.540125,18.7740267 113.892834,19.6676808 114.544998,20.3203751 C115.197162,20.9730694 116.090529,21.3265049 117.01272,21.29666 C117.909107,21.3002296 118.774236,20.9674849 119.4372,20.36416 C120.142301,19.7225044 120.531845,18.8047988 120.50361,17.85186 C120.542366,16.9187806 120.185431,16.0126954 119.520705,15.3567396 C118.855978,14.7007838 117.945232,14.3559145 117.01275,14.40706 L117.01275,14.40706 Z M127.36779,19 C127.545655,20.6795073 128.999001,21.9310811 130.68631,21.8578 C131.885961,21.9028886 133.015154,21.291783 133.63353,20.2628 L135.58259,21.14312 C134.690651,22.671156 133.146087,23.7046463 131.393346,23.9462035 C129.640606,24.1877607 127.874066,23.6105964 126.60205,22.38079 C125.512896,21.2557149 124.933887,19.7325282 125.00066,18.16805 C124.929251,16.6168966 125.509908,15.1065828 126.60205,14.00277 C127.646824,12.9446347 129.083595,12.3671023 130.57005,12.40777 C132.037713,12.3584048 133.456466,12.9388455 134.46866,14.00277 C135.521342,15.1270462 136.073993,16.6296228 136.00066,18.16805 C136.009756,18.4455897 136.001854,18.7234258 135.977,19 L127.36779,19 Z M133.65667,17.28771 C133.540354,15.6891571 132.1711,14.4746313 130.57009,14.54992 C128.942778,14.460816 127.532726,15.6663288 127.36778,17.28771 L133.65667,17.28771 Z M65.5949,24.83427 C66.2368916,25.9861376 67.4517572,26.7006074 68.77045,26.70183 C71.29165,26.70183 72.5525,25.24149 72.5525,22.29644 L72.5525,21.72165 C71.7049798,22.9960725 70.2509435,23.7323738 68.72209,23.66131 C67.2117105,23.6927047 65.7523642,23.1143306 64.67356,22.05678 C63.548303,20.9596173 62.940452,19.4371503 63.00065,17.86669 C62.9391078,16.3180067 63.5172344,14.8121801 64.5993611,13.7025815 C65.6814879,12.5929828 67.1723507,11.9772946 68.72209,12 C70.2375464,11.9382235 71.6805065,12.6509318 72.5525,13.89192 L72.5525,12.23966 L75.00066,12.23966 L75.00066,21.7694 C75.00066,26.58201 72.91566,29 68.77045,29 C66.5748775,29.0198796 64.552953,27.808966 63.53411,25.864 L64.55216,25.337 L65.5949,24.83427 Z M69.01275,14.39461 C68.0970642,14.3751441 67.2130034,14.7297564 66.56459,15.37661 C65.9036286,16.0237484 65.5432888,16.917729 65.57072,17.84234 C65.5397141,18.7648887 65.892191,19.6590776 66.5443558,20.31233 C67.1965205,20.9655823 68.0901209,21.3195486 69.01272,21.29008 C69.9092459,21.2936037 70.774449,20.960545 71.4372,20.35678 C72.1424171,19.714306 72.5319205,18.7959135 72.50361,17.84234 C72.542792,16.9088819 72.1860965,16.0022572 71.5213671,15.3457407 C70.8566377,14.6892241 69.9456488,14.3438268 69.01275,14.39461 L69.01275,14.39461 Z" id="Shape"></path>
            <polygon id="Path" opacity="0.25" points="18.001 10 19.001 9 14.001 0 11.001 3"></polygon>
            <polygon id="Path" opacity="0.25" points="25.001 3 22.001 0 17.001 9 18.001 10"></polygon>
            <path d="M5.00066,7.99909 C5.00043,10.47766 6.10827,12.10631 7.99936,13.99739 L11.99762,17.99565 L11.22004,18.77323 C9.80956542,20.0860543 8.99039812,21.9137948 8.94907263,23.8402523 C8.90774714,25.7667097 9.64778125,27.6278975 11.00066,29 L12.00066,30 L22.00066,20 C23.95243,18.04823 24.40931,16.41343 22.45754,14.46166 L18.00066,10 C18.00066,10 17.39724,9.39575 7.99935,0.00348 C7.15057178,0.868634451 6.47236923,1.88593998 6.00022,3.00218 C5.3286679,4.581887 4.98846295,6.28260882 5.00066,7.99909 Z" id="Path" opacity="0.4"></path>
            <path d="M30.92959,7.99909 C30.92982,10.47874 29.8215,12.10809 27.92959,14 L23.92959,18 L24.70751,18.77792 C26.0924939,20.1629026 26.8705699,22.0413429 26.8705699,24.000005 C26.8705699,25.9586671 26.0924939,27.8371074 24.70751,29.22209 L24.00066,30 L14.00066,20 C13.5764,19.57574 10.02409,17.44886 14.00066,14 L19.00066,9 L28.00066,0 C28.8296153,0.867407845 29.4844307,1.88582027 29.92959,3 C30.6014368,4.58039578 30.9417915,6.28185966 30.92959,7.99909 Z" id="Path" opacity="0.4"></path>
            <path d="M33.01482,3.52560203e-16 L18.55034,14.46448 C18.3507321,14.6699241 18.1691943,14.8921825 18.00774,15.12879 C17.8462857,14.8921825 17.6647479,14.6699241 17.46514,14.46448 L3.00066,3.52560203e-16 C1.0815982,1.8218199 -0.00333013631,4.35298665 0.00066,6.99908 C0.0569289233,9.63303025 1.13229962,12.1425583 3.00066,14 L7.00066,18 L6.22277,18.77789 C4.83777997,20.1628653 4.05969944,22.0413037 4.05969944,23.999965 C4.05969944,25.9586263 4.83777997,27.8370647 6.22277,29.22204 L8.00066,31 L17.46514,21.53552 C17.6647479,21.3300759 17.8462857,21.1078175 18.00774,20.87121 C18.1691943,21.1078175 18.3507321,21.3300759 18.55034,21.53552 L28.01482,31 L29.79271,29.222 C31.1777,27.8370247 31.9557806,25.9585863 31.9557806,23.999925 C31.9557806,22.0412637 31.1777,20.1628253 29.79271,18.77785 L29.01482,18 L33.01482,14 C34.8793827,12.1412296 35.9498121,9.63138622 36.00066,6.99908 C36.0134271,4.35407067 34.9329303,1.82128805 33.01482,3.52560203e-16 Z" id="Path"></path>
        </g>
    </g>
</svg>