<?xml version="1.0" encoding="UTF-8"?>
<svg width="36px" height="31px" viewBox="0 0 36 31" version="1.1" xmlns="http://www.w3.org/2000/svg" xmlns:xlink="http://www.w3.org/1999/xlink">
    <!-- Generator: Sketch 53.2 (72643) - https://sketchapp.com -->
    <title>Logotype-Color Compact</title>
    <desc>Created with Sketch.</desc>
    <defs>
        <linearGradient x1="49.9982932%" y1="34.5827097%" x2="49.9982932%" y2="90.3166129%" id="linearGradient-1">
            <stop stop-color="#00C8FF" offset="0%"></stop>
            <stop stop-color="#00A4F9" offset="100%"></stop>
        </linearGradient>
        <linearGradient x1="63.3144986%" y1="54.0482869%" x2="46.7163642%" y2="50.7791969%" id="linearGradient-2">
            <stop stop-color="#0090DB" offset="0%"></stop>
            <stop stop-color="#0090DB" stop-opacity="0" offset="99.489%"></stop>
        </linearGradient>
        <linearGradient x1="50.0020497%" y1="37.8369032%" x2="50.0020497%" y2="95.7866129%" id="linearGradient-3">
            <stop stop-color="#00C8FF" offset="0%"></stop>
            <stop stop-color="#00A4F9" offset="100%"></stop>
        </linearGradient>
    </defs>
    <g id="Logotype-Color-Compact" stroke="none" stroke-width="1" fill="none" fill-rule="evenodd">
        <g id="Logrange-Logo-S" fill-rule="nonzero">
            <polygon id="Path" fill="#408FFF" opacity="0.3" points="18.001 10 19.001 9 14.001 0 11.001 3"></polygon>
            <polygon id="Path" fill="#408FFF" opacity="0.3" points="25.001 3 22.001 0 17.001 9 18.001 10"></polygon>
            <path d="M5.00066,7.99909 C5.00043,10.47766 6.10827,12.10631 7.99936,13.99739 L11.99762,17.99565 L11.22004,18.77323 C9.80956542,20.0860543 8.99039812,21.9137948 8.94907263,23.8402523 C8.90774714,25.7667097 9.64778125,27.6278975 11.00066,29 L12.00066,30 L22.00066,20 C23.95243,18.04823 24.40931,16.41343 22.45754,14.46166 L18.00066,10 C18.00066,10 17.39724,9.39575 7.99935,0.00348 C7.15057178,0.868634451 6.47236923,1.88593998 6.00022,3.00218 C5.3286679,4.581887 4.98846295,6.28260882 5.00066,7.99909 Z" id="Path" fill="#00AEFF" opacity="0.5"></path>
            <path d="M30.92959,7.99909 C30.92982,10.47874 29.8215,12.10809 27.92959,14 L23.92959,18 L24.70751,18.77792 C26.0924939,20.1629026 26.8705699,22.0413429 26.8705699,24.000005 C26.8705699,25.9586671 26.0924939,27.8371074 24.70751,29.22209 L24.00066,30 L14.00066,20 C13.5764,19.57574 10.02409,17.44886 14.00066,14 L19.00066,9 L28.00066,0 C28.8296153,0.867407845 29.4844307,1.88582027 29.92959,3 C30.6014368,4.58039578 30.9417915,6.28185966 30.92959,7.99909 Z" id="Path" fill="#00AEFF" opacity="0.5"></path>
            <path d="M0.00066,6.99909 C0.0569294152,9.63303722 1.13230023,12.142562 3.00066,14 L7.00066,18 L6.22274,18.77792 C4.83775611,20.1629026 4.05968015,22.0413429 4.05968015,24.000005 C4.05968015,25.9586671 4.83775611,27.8371074 6.22274,29.22209 L8.00066,31 L17.46513,21.53553 C18.4028126,20.597848 18.9295972,19.326078 18.9295972,17.999995 C18.9295972,16.673912 18.4028126,15.402142 17.46513,14.46446 L3.00066,0 C1.08158874,1.82181746 -0.00334116603,4.35299148 0.00066,6.99909 Z" id="Path" fill="url(#linearGradient-1)"></path>
            <path d="M12.00066,27 C9.00066,25 8.00066,22 11.00066,19 L12.00066,18 L8.00066,14 C4.75971123,11.3005611 3.91733445,6.66748881 6.00066,3 L3.00066,1.77635684e-15 C1.08154172,1.82178058 -0.00339756985,4.35297286 0.00066,6.99908 C0.0569569952,9.63302418 1.13232338,12.1425422 3.00066,14 L7.00066,18 L6.22283,18.77789 C4.83781792,20.1628536 4.05972216,22.0412964 4.05972216,23.999965 C4.05972216,25.9586336 4.83781792,27.8370764 6.22283,29.22204 L8.00066,31 L12.00066,27 Z" id="Path" fill="#0070F7" opacity="0.15" style="mix-blend-mode: multiply;"></path>
            <path d="M17.465,21.53548 C19.4175763,19.5828663 19.4175763,16.4170937 17.465,14.46448 L10.597,7.59631 C12.10515,10.53571 8.00066,14.11975 8.00066,18 C8.00066,21.88025 12.10515,25.46423 10.59697,28.40363 L17.465,21.53548 Z" id="Path" fill="url(#linearGradient-2)"></path>
            <path d="M36.00066,6.99909 C35.9498005,9.63139675 34.8793604,12.1412363 33.01479,14 L29.01479,18 L29.79271,18.77792 C31.1776939,20.1629026 31.9557699,22.0413429 31.9557699,24.000005 C31.9557699,25.9586671 31.1776939,27.8371074 29.79271,29.22209 L28.01479,31 L18.55032,21.53553 C17.6126374,20.597848 17.0858528,19.326078 17.0858528,17.999995 C17.0858528,16.673912 17.6126374,15.402142 18.55032,14.46446 L33.01479,0 C34.9329139,1.82128527 36.0134221,4.3540727 36.00066,6.99909 Z" id="Path" fill="url(#linearGradient-3)"></path>
            <path d="M24.01479,27 C27.01479,25 28.01479,22 25.01479,19 L24.01479,18 L28.01479,14 C31.2557388,11.3005611 32.0981155,6.66748881 30.01479,3 L33.01479,0 C34.9329577,1.82124985 36.0134716,4.35405562 36.00065,6.99908 C35.9497665,9.63138256 34.8793344,12.1412154 33.01479,14 L29.01479,18 L29.79262,18.77789 C31.1776321,20.1628536 31.9557278,22.0412964 31.9557278,23.999965 C31.9557278,25.9586336 31.1776321,27.8370764 29.79262,29.22204 L28.01479,31 L24.01479,27 Z" id="Path" fill="#0070F7" opacity="0.15" style="mix-blend-mode: multiply;"></path>
        </g>
    </g>
</svg>