<?xml version="1.0" encoding="UTF-8"?>
<svg width="16px" height="16px" viewBox="0 0 16 16" version="1.1" xmlns="http://www.w3.org/2000/svg" xmlns:xlink="http://www.w3.org/1999/xlink">
    <!-- Generator: Sketch 53.2 (72643) - https://sketchapp.com -->
    <title>Artboard</title>
    <desc>Created with Sketch.</desc>
    <defs>
        <path d="M11.4506835,10.5078744 L14.4714045,13.5285955 C14.731754,13.788945 14.731754,14.211055 14.4714045,14.4714045 C14.211055,14.731754 13.788945,14.731754 13.5285955,14.4714045 L10.5078744,11.4506835 C9.54301263,12.2121976 8.32457979,12.6666667 7,12.6666667 C3.87038642,12.6666667 1.33333333,10.1296136 1.33333333,7 C1.33333333,3.87038642 3.87038642,1.33333333 7,1.33333333 C10.1296136,1.33333333 12.6666667,3.87038642 12.6666667,7 C12.6666667,8.32457979 12.2121976,9.54301263 11.4506835,10.5078744 Z M10.106506,10.0211622 C10.8657447,9.24061157 11.3333333,8.17491137 11.3333333,7 C11.3333333,4.60676608 9.39323392,2.66666667 7,2.66666667 C4.60676608,2.66666667 2.66666667,4.60676608 2.66666667,7 C2.66666667,9.39323392 4.60676608,11.3333333 7,11.3333333 C8.17491137,11.3333333 9.24061157,10.8657447 10.0211622,10.106506 C10.0339564,10.0911896 10.0475453,10.0763123 10.0619288,10.0619288 C10.0763123,10.0475453 10.0911896,10.0339564 10.106506,10.0211622 Z" id="path-1"></path>
    </defs>
    <g id="Artboard" stroke="none" stroke-width="1" fill="none" fill-rule="evenodd" opacity="0.351190476">
        <g id="search">
            <mask id="mask-2" fill="white">
                <use xlink:href="#path-1"></use>
            </mask>
            <use id="Combined-Shape" fill="#000000" fill-rule="nonzero" xlink:href="#path-1"></use>
            <g id="COLOR/-black" mask="url(#mask-2)" fill="#000000" fill-rule="evenodd">
                <rect id="Rectangle" x="0" y="0" width="16" height="16"></rect>
            </g>
        </g>
    </g>
</svg>