<?xml version="1.0" encoding="UTF-8"?>
<svg width="32px" height="32px" viewBox="0 0 32 32" version="1.1" xmlns="http://www.w3.org/2000/svg" xmlns:xlink="http://www.w3.org/1999/xlink">
    <!-- Generator: sketchtool 53.2 (72643) - https://sketchapp.com -->
    <title>2FB7C604-9888-4D86-B9EE-F7A40122344A</title>
    <desc>Created with sketchtool.</desc>
    <g id="Design" stroke="none" stroke-width="1" fill="none" fill-rule="evenodd">
        <g id="Desktop/LanadingPage-v6" transform="translate(-236.000000, -1014.000000)">
            <g id="Features" transform="translate(0.000000, 790.000000)">
                <g id="Content" transform="translate(227.000000, 96.000000)">
                    <g id="Features" transform="translate(0.000000, 120.000000)">
                        <g id="Row-01">
                            <g id="Feature-01">
                                <g id="Heading" transform="translate(1.000000, 0.000000)">
                                    <g id="Perfomant">
                                        <g id="FeatureIcon-Perfomant">
                                            <g id="Icons/48px/Feature/Perfomant">
                                                <g id="FeatureIcon-Perfomant">
                                                    <g id="Boundaries">
                                                        <rect id="Rectangle" x="0" y="0" width="48" height="48" rx="4"></rect>
                                                    </g>
                                                    <g id="Picto" transform="translate(7.993683, 8.000000)" fill-rule="nonzero">
                                                        <path d="M31.0063174,8.8817842e-14 L9.00631741,8.8817842e-14 C8.45403266,8.8817842e-14 8.00631741,0.44771525 8.00631741,1 C8.00631741,1.55228475 8.45403266,2 9.00631741,2 L28.5922574,2 L0.299317415,30.293 C0.0429032718,30.5448109 -0.0586496639,30.9148595 0.0333173425,31.2622771 C0.125284349,31.6096948 0.396622625,31.8810331 0.744040283,31.9730001 C1.09145794,32.0649671 1.46150648,31.9634141 1.71331741,31.707 L30.0063174,3.41406 L30.0063174,23 C30.0063174,23.5522847 30.4540327,24 31.0063174,24 C31.5586022,24 32.0063174,23.5522847 32.0063174,23 L32.0063174,1 C32.0059133,0.868786869 31.9796776,0.738937252 31.9291074,0.61786 C31.7737803,0.245050178 31.4101876,0.00160435085 31.0063174,8.8817842e-14 Z" id="Path" fill="#00A4F9"></path>
                                                        <path d="M1.00631741,19 C0.601921517,18.9999137 0.237383364,18.7562725 0.0826394364,18.3826546 C-0.0721044915,18.0090366 0.0134094989,17.5789943 0.299317415,17.293 L8.29931741,9.293 C8.69079836,8.90854701 9.31895994,8.91139172 9.70694282,9.2993746 C10.0949257,9.68735748 10.0977704,10.3155191 9.71331741,10.707 L1.71331741,18.707 C1.52602717,18.8948521 1.27158323,19.0003006 1.00631741,19 Z" id="Path" fill="#00C8FF"></path>
                                                        <path d="M14.0063174,32 C13.6019215,31.9999137 13.2373834,31.7562725 13.0826394,31.3826546 C12.9278955,31.0090366 13.0134095,30.5789943 13.2993174,30.293 L21.2993174,22.293 C21.6907984,21.908547 22.3189599,21.9113917 22.7069428,22.2993746 C23.0949257,22.6873575 23.0977704,23.3155191 22.7133174,23.707 L14.7133174,31.707 C14.5260272,31.8948521 14.2715832,32.0003006 14.0063174,32 Z" id="Path" fill="#00C8FF"></path>
                                                    </g>
                                                </g>
                                            </g>
                                        </g>
                                    </g>
                                </g>
                            </g>
                        </g>
                    </g>
                </g>
            </g>
        </g>
    </g>
</svg>