<?xml version="1.0" encoding="UTF-8"?>
<svg width="34px" height="34px" viewBox="0 0 34 34" version="1.1" xmlns="http://www.w3.org/2000/svg" xmlns:xlink="http://www.w3.org/1999/xlink">
    <!-- Generator: sketchtool 53.2 (72643) - https://sketchapp.com -->
    <title>11A487EE-AE89-4799-A8D7-1EA5B70985D7</title>
    <desc>Created with sketchtool.</desc>
    <g id="Design" stroke="none" stroke-width="1" fill="none" fill-rule="evenodd">
        <g id="Desktop/LanadingPage-v6" transform="translate(-595.000000, -1013.000000)">
            <g id="Features" transform="translate(0.000000, 790.000000)">
                <g id="Content" transform="translate(227.000000, 96.000000)">
                    <g id="Features" transform="translate(0.000000, 120.000000)">
                        <g id="Row-01">
                            <g id="Feature-02" transform="translate(361.000000, 0.000000)">
                                <g id="Scalable">
                                    <g id="Icons/48px/Feature/Scalable">
                                        <g id="FeatureIcon-Scalable">
                                            <g id="Boundaries">
                                                <rect id="Rectangle" x="0" y="0" width="48" height="48" rx="4"></rect>
                                            </g>
                                            <g id="Picto" transform="translate(7.000000, 7.000000)" fill-rule="nonzero">
                                                <path d="M21,10 L2,10 L2,12 L21,12 C21.5520563,12.0005512 21.9994488,12.4479437 22,13 L22,32 L24,32 L24,13 C23.9981923,11.3438951 22.6561049,10.0018077 21,10 Z" id="Path" fill="#00C8FF"></path>
                                                <path d="M11.1543,20 L2,20 L2,22 L11.1543,22 C11.6213824,22.0004249 11.9998457,22.3791074 12,22.84619 L12,32 L14,32 L14,22.84619 C13.998413,21.2751318 12.7253579,20.0018575 11.1543,20 Z" id="Path" fill="#00C8FF"></path>
                                                <path d="M31,34 L3,34 C1.34389511,33.9981923 0.00180771165,32.6561049 0,31 L0,3 C0.00180771165,1.34389511 1.34389511,0.00180771165 3,0 L31,0 C32.6561049,0.00180771165 33.9981923,1.34389511 34,3 L34,31 C33.9981923,32.6561049 32.6561049,33.9981923 31,34 Z M3,2 C2.44794374,2.00055123 2.00055123,2.44794374 2,3 L2,31 C2.00055123,31.5520563 2.44794374,31.9994488 3,32 L31,32 C31.5520563,31.9994488 31.9994488,31.5520563 32,31 L32,3 C31.9994488,2.44794374 31.5520563,2.00055123 31,2 L3,2 Z" id="Shape" fill="#00A4F9"></path>
                                            </g>
                                        </g>
                                    </g>
                                </g>
                            </g>
                        </g>
                    </g>
                </g>
            </g>
        </g>
    </g>
</svg>