<?xml version="1.0" encoding="UTF-8"?>
<svg width="34px" height="34px" viewBox="0 0 34 34" version="1.1" xmlns="http://www.w3.org/2000/svg" xmlns:xlink="http://www.w3.org/1999/xlink">
    <!-- Generator: sketchtool 53.2 (72643) - https://sketchapp.com -->
    <title>699EA281-CFE6-4F1D-9DED-399EF74CB92F</title>
    <desc>Created with sketchtool.</desc>
    <g id="Design" stroke="none" stroke-width="1" fill="none" fill-rule="evenodd">
        <g id="Desktop/LanadingPage-v6" transform="translate(-956.000000, -1013.000000)">
            <g id="Features" transform="translate(0.000000, 790.000000)">
                <g id="Content" transform="translate(227.000000, 96.000000)">
                    <g id="Features" transform="translate(0.000000, 120.000000)">
                        <g id="Row-01">
                            <g id="Feature-03" transform="translate(722.000000, 0.000000)">
                                <g id="Heading">
                                    <g id="Open-Source">
                                        <g id="Icons/48px/Feature/Open-Source">
                                            <g id="FeatureIcon-Open-Source">
                                                <g id="Boundaries">
                                                    <rect id="Rectangle" x="0" y="0" width="48" height="48" rx="4"></rect>
                                                </g>
                                                <g id="Picto" transform="translate(7.000000, 7.000000)" fill-rule="nonzero">
                                                    <polygon id="Path" fill="#00C8FF" points="18 16.0057316 18 14.0057316 29 2.00573158 30 3.00573158 31 4.00573158 20 16.0057316"></polygon>
                                                    <path d="M17,34.0057316 C7.61115925,34.0057316 7.99360578e-15,26.3945723 7.10542736e-15,17.0057316 C5.32907052e-15,7.61689083 7.61115925,0.00573157847 17,0.00573157847 C19.173957,-0.0509567994 21.338362,0.313314538 23.374,1.07848158 C23.7068892,1.21099135 23.9434268,1.51149599 23.9940378,1.86619665 C24.0446488,2.22089731 23.9015954,2.57556449 23.6190509,2.79588839 C23.3365064,3.01621229 22.9576684,3.06850802 22.626,2.93297158 C20.8276215,2.2654375 18.91748,1.95062065 17,2.00573158 C9.86583754,2.01124635 3.72202881,7.03934659 2.30575499,14.0315188 C0.889481165,21.0236911 4.59241052,28.0462613 11.16211,30.8275116 C14.8970155,32.3909882 19.1029845,32.3909882 22.83789,30.8275116 C28.3945815,28.4831727 32.0049034,23.0367117 32,17.0057316 C32.0286247,15.0857018 31.7127536,13.1760943 31.06738,11.3675516 C30.938116,11.0343603 30.9964265,10.6575174 31.2203465,10.3789758 C31.4442666,10.1004342 31.7997774,9.96251112 32.1529615,10.0171608 C32.5061456,10.0718105 32.803346,10.3107303 32.93261,10.6439216 C33.6663989,12.6835229 34.0279339,14.8383277 34,17.0057316 C34.0033861,21.5154491 32.2134072,25.8414333 29.0245545,29.030286 C25.8357017,32.2191388 21.5097175,34.0091177 17,34.0057316 Z" id="Path" fill="#00A4F9"></path>
                                                    <path d="M17,27.0057316 C11.4771525,27.0057316 7,22.5285791 7,17.0057316 C7,11.4828841 11.4771525,7.00573158 17,7.00573158 C17.5522847,7.00573158 18,7.45344683 18,8.00573158 C18,8.55801633 17.5522847,9.00573158 17,9.00573158 C13.7641965,9.00565878 10.8469739,10.9548134 9.60865189,13.9442921 C8.37032986,16.9337708 9.05477986,20.3748345 11.3428385,22.6628931 C13.6308971,24.9509517 17.0719608,25.6354017 20.0614395,24.3970797 C23.0509182,23.1587577 25.0000728,20.2415351 25,17.0057316 C25,16.4534468 25.4477153,16.0057316 26,16.0057316 C26.5522847,16.0057316 27,16.4534468 27,17.0057316 C26.9999558,22.5285608 22.5228292,27.0056874 17,27.0057316 Z" id="Path" fill="#00A4F9"></path>
                                                </g>
                                            </g>
                                        </g>
                                    </g>
                                </g>
                            </g>
                        </g>
                    </g>
                </g>
            </g>
        </g>
    </g>
</svg>