<?xml version="1.0" encoding="UTF-8"?>
<svg width="32px" height="34px" viewBox="0 0 32 34" version="1.1" xmlns="http://www.w3.org/2000/svg" xmlns:xlink="http://www.w3.org/1999/xlink">
    <!-- Generator: sketchtool 53.2 (72643) - https://sketchapp.com -->
    <title>39A03ABD-9F73-4354-B1D2-FF21963F216D</title>
    <desc>Created with sketchtool.</desc>
    <g id="Design" stroke="none" stroke-width="1" fill="none" fill-rule="evenodd">
        <g id="Desktop/LanadingPage-v6" transform="translate(-235.000000, -1281.000000)">
            <g id="Features" transform="translate(0.000000, 790.000000)">
                <g id="Content" transform="translate(227.000000, 96.000000)">
                    <g id="Features" transform="translate(0.000000, 120.000000)">
                        <g id="Row-02" transform="translate(0.000000, 268.000000)">
                            <g id="Feature-04">
                                <g id="Heading">
                                    <g id="Secure">
                                        <g id="Icons/48px/Feature/Secure">
                                            <g id="FeatureIcon-Secure">
                                                <g id="Boundaries">
                                                    <rect id="Rectangle" x="0" y="0" width="48" height="48" rx="4"></rect>
                                                </g>
                                                <g id="Picto" transform="translate(8.000000, 7.000000)" fill-rule="nonzero">
                                                    <path d="M31,10.0000031 L27,10.0000031 C26.9400669,10.0000155 26.8802547,9.99462363 26.82129,9.98389311 L16,8.01660311 L5.17871,9.98389311 C5.1197453,9.99462363 5.05993313,10.0000155 5,10.0000031 L1,10.0000031 C0.44771525,10.0000031 0,9.55228786 0,9.00000311 C0,8.44771836 0.44771525,8.00000311 1,8.00000311 L4.90967,8.00000311 L15.82129,6.01611311 C15.9394615,5.99462896 16.0605385,5.99462896 16.17871,6.01611311 L27.09033,8.00000311 L31,8.00000311 C31.5522847,8.00000311 32,8.44771836 32,9.00000311 C32,9.55228786 31.5522847,10.0000031 31,10.0000031 Z" id="Path" fill="#00C8FF"></path>
                                                    <path d="M16,33.0000031 C15.4477153,33.0000031 15,32.5522879 15,32.0000031 L15,7.00000311 C15,6.44771836 15.4477153,6.00000311 16,6.00000311 C16.5522847,6.00000311 17,6.44771836 17,7.00000311 L17,32.0000031 C17,32.5522879 16.5522847,33.0000031 16,33.0000031 Z" id="Path" fill="#00C8FF"></path>
                                                    <path d="M16,34.0000031 C15.8591406,33.9999251 15.7198808,33.9701438 15.59131,33.9126031 C14.95459,33.6274431 0,26.8305731 0,18.0000031 L0,3.00000311 C0,2.44771836 0.44771525,2.00000311 1,2.00000311 L4.90967,2.00000311 L15.82129,0.0161131112 C15.9394615,-0.00537103705 16.0605385,-0.00537103705 16.17871,0.0161131112 L27.09033,2.00000311 L31,2.00000311 C31.5522847,2.00000311 32,2.44771836 32,3.00000311 L32,18.0000031 C32,26.8305731 17.04541,33.6274431 16.40869,33.9126031 C16.2801192,33.9701438 16.1408594,33.9999251 16,34.0000031 Z M2,4.00000311 L2,18.0000031 C2,24.8140031 13.65088,30.7651431 16,31.8950031 C18.34912,30.7651431 30,24.8140031 30,18.0000031 L30,4.00000311 L27,4.00000311 C26.9400669,4.00001547 26.8802547,3.99462363 26.82129,3.98389311 L16,2.01660311 L5.17871,3.98389311 C5.1197453,3.99462363 5.05993313,4.00001547 5,4.00000311 L2,4.00000311 Z" id="Shape" fill="#00A4F9"></path>
                                                </g>
                                            </g>
                                        </g>
                                    </g>
                                </g>
                            </g>
                        </g>
                    </g>
                </g>
            </g>
        </g>
    </g>
</svg>