<?xml version="1.0" encoding="UTF-8"?>
<svg width="48px" height="48px" viewBox="0 0 48 48" version="1.1" xmlns="http://www.w3.org/2000/svg" xmlns:xlink="http://www.w3.org/1999/xlink">
    <!-- Generator: Sketch 53.2 (72643) - https://sketchapp.com -->
    <title>Icons/48px/Feature/AggregateData</title>
    <desc>Created with Sketch.</desc>
    <g id="Icons/48px/Feature/AggregateData" stroke="none" stroke-width="1" fill="none" fill-rule="evenodd">
        <g id="FeatureIcon-AggregateData">
            <g id="Boundaries">
                <rect id="Rectangle" x="0" y="0" width="48" height="48" rx="4"></rect>
            </g>
            <g id="Picto" transform="translate(6.000000, 5.000000)" fill-rule="nonzero">
                <path d="M31,4.23075939e-05 C29.4223177,-0.00720719815 27.9891563,0.917748474 27.3459215,2.35836744 C26.7026867,3.7989864 26.9707137,5.48352083 28.0293,6.65336231 L24.16797,12.4453623 L25.832,13.5547323 L29.69339,7.76268231 C30.1124137,7.91496071 30.5541903,7.99521426 31,8.00004231 C33.209139,8.00004231 35,6.20918131 35,4.00004231 C35,1.79090331 33.209139,4.23075939e-05 31,4.23075939e-05 Z M31,6.00004231 C29.8954305,6.00004231 29,5.10461181 29,4.00004231 C29,2.89547281 29.8954305,2.00004231 31,2.00004231 C32.1045695,2.00004231 33,2.89547281 33,4.00004231 C32.998738,5.10408866 32.1040464,5.99878034 31,6.00004231 L31,6.00004231 Z" id="Shape" fill="#00C8FF"></path>
                <path d="M13,18.0000423 L7.23633,18.0000423 L1.44727,15.1055123 C1.13724311,14.9507125 0.76918577,14.9673807 0.474420084,15.1495697 C0.179654398,15.3317588 0.000167520467,15.6535172 0,16.0000423 L0,23.0000423 C2.10540538e-05,23.3688252 0.203011419,23.7076645 0.528161839,23.8816704 C0.85331226,24.0556762 1.24784157,24.0366025 1.55469,23.8320423 L7.30273,20.0000423 L13,20.0000423 C13.5522847,20.0000423 14,19.5523271 14,19.0000423 C14,18.4477576 13.5522847,18.0000423 13,18.0000423 Z M2,21.1313923 L2,17.6182023 L5.01172,19.1240423 L2,21.1313923 Z" id="Shape" fill="#00C8FF"></path>
                <path d="M35.7998,33.3999423 L32.7998,29.3999423 C32.6409866,29.1875064 32.4041321,29.0470382 32.1415554,29.0095658 C31.8789787,28.9720935 31.6122869,29.0407005 31.40039,29.2002323 L30.02368,30.2327623 L26.832,25.4453523 L25.168,26.5547323 L28.42123,31.4346123 L27.40042,32.2002423 C27.1879708,32.3591407 27.0474688,32.5960342 27.0099105,32.8586608 C26.9723522,33.1212874 27.040824,33.3880662 27.20022,33.6001423 L30.20022,37.6001423 C30.3592303,37.8123083 30.5960555,37.9525664 30.8585351,37.9900249 C31.1210147,38.0274834 31.3876195,37.9590699 31.59963,37.7998523 L35.59963,34.7998523 C35.8120774,34.6409492 35.9525755,34.4040516 35.9901282,34.1414228 C36.0276809,33.878794 35.9592024,33.6120154 35.7998,33.3999423 Z M31.2002,35.6001423 L29.4004,33.2002423 L31.7998,31.3999423 L33.5996,33.7998423 L31.2002,35.6001423 Z" id="Shape" fill="#00C8FF"></path>
                <path d="M21,29.0000423 C20.8125251,28.999971 20.6288221,28.9473617 20.46973,28.8481823 L12.46973,23.8481823 C12.1776141,23.6651583 12.0001655,23.3447588 12,23.0000423 L12,15.0000423 C12.0001655,14.6553258 12.1776141,14.3349263 12.46973,14.1519023 L20.46973,9.15190231 C20.7943478,8.94975168 21.2056622,8.94975168 21.53028,9.15190231 L29.53028,14.1519023 C29.8223921,14.3349287 29.9998367,14.6553278 30,15.0000423 L30,23.0000423 C29.9998345,23.3447588 29.8223859,23.6651583 29.53027,23.8481823 L21.53027,28.8481823 C21.3711779,28.9473617 21.1874749,28.999971 21,29.0000423 Z M14,22.4458423 L21,26.8208423 L28,22.4458423 L28,15.5542423 L21,11.1792423 L14,15.5542423 L14,22.4458423 Z" id="Shape" fill="#00A4F9"></path>
            </g>
        </g>
    </g>
</svg>