<?xml version="1.0" encoding="UTF-8"?>
<svg width="48px" height="48px" viewBox="0 0 48 48" version="1.1" xmlns="http://www.w3.org/2000/svg" xmlns:xlink="http://www.w3.org/1999/xlink">
    <!-- Generator: Sketch 53.2 (72643) - https://sketchapp.com -->
    <title>Icons/48px/Feature/Workforyou</title>
    <desc>Created with Sketch.</desc>
    <g id="Icons/48px/Feature/Workforyou" stroke="none" stroke-width="1" fill="none" fill-rule="evenodd">
        <g id="FeatureIcon-Workforyou">
            <g id="Boundaries">
                <rect id="Rectangle" x="0" y="0" width="48" height="48" rx="4"></rect>
            </g>
            <g id="Picto" transform="translate(8.000000, 6.000000)" fill-rule="nonzero">
                <path d="M33.0006077,15 L20.0006077,15 C19.73537,15.000069 19.480976,14.8947343 19.2934247,14.707183 C19.1058734,14.5196317 19.0005387,14.2652377 19.0006077,14 L19.0006077,1.00000003 C19.0005387,0.734762401 19.1058734,0.480368402 19.2934247,0.292817067 C19.480976,0.105265731 19.73537,-6.89548269e-05 20.0006077,3.38668528e-08 C27.6904015,0.100925601 33.8996821,6.31020623 34.0006077,14 C34.0006767,14.2652377 33.895342,14.5196317 33.7077906,14.707183 C33.5202393,14.8947343 33.2658453,15.000069 33.0006077,15 Z M21.0006077,13 L31.9576077,13 C31.3876219,7.20116352 26.7994681,2.61320234 21.0006077,2.04346003 L21.0006077,13 Z" id="Shape" fill="#00C8FF"></path>
                <path d="M31.0006077,17 L16.0006077,17 C15.7353971,16.9999775 15.4810556,17.1053836 15.2936077,17.293 L5.41298768,27.17362 C3.212938,24.6498339 2.00080736,21.4149813 2.00060768,18.06689 C1.99097086,10.32007 8.25382969,4.0272881 16.0006077,4.00000003 C16.5528924,4.00000003 17.0006077,3.55228478 17.0006077,3.00000003 C17.0006077,2.44771528 16.5528924,2.00000003 16.0006077,2.00000003 C9.52917071,1.99997172 3.69493867,5.89825325 1.21841388,11.877076 C-1.25811091,17.8558987 0.11078272,24.7378311 4.68677969,29.313828 C9.26277665,33.889825 16.144709,35.2587186 22.1235317,32.7821938 C28.1023545,30.305669 32.000636,24.471437 32.0006077,18 C32.0006767,17.7347624 31.895342,17.4803684 31.7077906,17.2928171 C31.5202393,17.1052657 31.2658453,16.999931 31.0006077,17 Z M29.9497077,19 C29.4014621,26.3342032 23.2888724,32.0039021 15.9342077,32 C12.5859772,31.9998522 9.35096883,30.7877338 6.82702768,28.58765 L16.4146677,19 L29.9497077,19 Z" id="Shape" fill="#00A4F9"></path>
            </g>
        </g>
    </g>
</svg>